<?xml version="1.0" encoding="utf-8"?>
<!-- Generator: Adobe Illustrator 25.2.1, SVG Export Plug-In . SVG Version: 6.00 Build 0)  -->
<svg version="1.1" id="Capa_1" xmlns="http://www.w3.org/2000/svg" xmlns:xlink="http://www.w3.org/1999/xlink" x="0px" y="0px"
	 viewBox="0 0 16 16" style="enable-background:new 0 0 16 16;" xml:space="preserve">
<style type="text/css">
	.st0{fill:url(#SVGID_1_);}
	.st1{fill:url(#SVGID_2_);}
	.st2{fill:url(#SVGID_3_);}
	.st3{fill:url(#SVGID_4_);}
</style>
<g>
	<g>
		<linearGradient id="SVGID_1_" gradientUnits="userSpaceOnUse" x1="7.9999" y1="4.2242" x2="8.0011" y2="15.6686">
			<stop  offset="0" style="stop-color:#6B0F42"/>
			<stop  offset="1" style="stop-color:#2AA186"/>
		</linearGradient>
		<path class="st0" d="M13.65,4.93C13.27,2.14,10.89,0,8,0C4.85,0,2.3,2.55,2.3,5.7c0,2.58,3.83,8.13,5.21,10.05
			c0.24,0.33,0.74,0.33,0.98,0c0.76-1.05,2.26-3.2,3.45-5.35l0,0c0,0,0,0,0,0c0-0.01,0.01-0.02,0.01-0.03c0,0,0,0,0,0
			c0.1-0.18,0.2-0.37,0.3-0.55c0.05-0.1,0-0.23-0.11-0.26c-0.21-0.07-0.52-0.17-0.68-0.22C10.49,9.04,9.53,8.7,8.59,8.3
			C7.89,8.01,7.25,7.64,6.74,7.07C6.13,6.37,6.07,5.38,6.62,4.79c0.55-0.59,1.24-0.56,1.95-0.37c1,0.27,1.92,0.63,2.96,0.87
			c0.28,0.07,1.26,0.32,1.82,0.46c0.19,0.05,0.38-0.11,0.36-0.31C13.68,5.2,13.65,4.93,13.65,4.93z M8.65,3.74
			c-1-0.27-1.96-0.3-2.74,0.52c-0.78,0.82-0.69,2.22,0.17,3.2c0.71,0.81,1.62,1.33,2.6,1.74c0.71,0.29,1.42,0.57,2.14,0.82
			c0.12,0.04,0.17,0.19,0.11,0.3c-0.85,1.45-1.81,2.84-2.39,3.65c-0.26,0.37-0.81,0.37-1.08,0c-1.24-1.74-4.19-6.09-4.19-8.15
			C3.27,3.2,5.39,1.08,8,1.08c2.05,0,3.79,1.3,4.45,3.13c0.09,0.26-0.14,0.52-0.4,0.45C10.91,4.38,9.78,4.04,8.65,3.74z"/>
		<g id="XMLID_8_">
			<g>
				<linearGradient id="SVGID_2_" gradientUnits="userSpaceOnUse" x1="8.0339" y1="4.1002" x2="8.0339" y2="15.851">
					<stop  offset="0" style="stop-color:#6B0F42"/>
					<stop  offset="1" style="stop-color:#2AA186"/>
				</linearGradient>
				<path class="st1" d="M9.23,6.02c0,0.65-0.54,1.17-1.22,1.16C7.35,7.18,6.82,6.63,6.84,5.97C6.86,5.36,7.42,4.8,8.02,4.8
					C8.65,4.8,9.22,5.38,9.23,6.02z M8.03,6.62c0.36,0,0.65-0.27,0.65-0.62c0-0.34-0.31-0.65-0.64-0.65c-0.32,0-0.62,0.3-0.63,0.62
					C7.4,6.33,7.68,6.62,8.03,6.62z"/>
			</g>
		</g>
		<linearGradient id="SVGID_3_" gradientUnits="userSpaceOnUse" x1="12.1763" y1="5.0785" x2="12.2329" y2="15.5097">
			<stop  offset="0" style="stop-color:#6B0F42"/>
			<stop  offset="1" style="stop-color:#2AA186"/>
		</linearGradient>
		<path class="st2" d="M12.65,5.98c-0.08,0-0.15,0.06-0.15,0.14c-0.03,0.32-0.14,1.13-0.52,1.77c-0.23,0.38-0.34,0.6-0.4,0.72
			c-0.04,0.08,0,0.19,0.09,0.21l0.09,0.03c0.06,0.02,0.13-0.01,0.17-0.06c0.17-0.25,0.56-0.94,0.71-1.49
			c0.16-0.57,0.22-0.74,0.16-1.15C12.79,6.06,12.74,5.98,12.65,5.98L12.65,5.98z"/>
		<linearGradient id="SVGID_4_" gradientUnits="userSpaceOnUse" x1="11.2213" y1="4.9495" x2="11.1132" y2="15.6488">
			<stop  offset="0" style="stop-color:#6B0F42"/>
			<stop  offset="1" style="stop-color:#2AA186"/>
		</linearGradient>
		<path class="st3" d="M11.75,5.83c0.13,0.03,0.22,0.16,0.21,0.29c-0.04,0.33-0.15,0.95-0.38,1.44c-0.19,0.4-0.35,0.71-0.46,0.89
			c-0.07,0.12-0.23,0.17-0.36,0.1l-0.18-0.1c-0.14-0.08-0.18-0.26-0.08-0.39c0.19-0.25,0.47-0.69,0.65-1.28
			c0.12-0.39,0.19-0.63,0.23-0.78c0.04-0.14,0.17-0.22,0.31-0.19L11.75,5.83z"/>
	</g>
</g>
</svg>
