<?xml version="1.0" encoding="utf-8"?>
<!-- Generator: Adobe Illustrator 25.2.1, SVG Export Plug-In . SVG Version: 6.00 Build 0)  -->
<svg version="1.1" id="Capa_1" xmlns="http://www.w3.org/2000/svg" xmlns:xlink="http://www.w3.org/1999/xlink" x="0px" y="0px"
	 viewBox="0 0 128.9 48.8" style="enable-background:new 0 0 128.9 48.8;" xml:space="preserve">
<style type="text/css">
	.st0{fill:url(#SVGID_1_);}
	.st1{fill:url(#SVGID_2_);}
</style>
<g>
	<linearGradient id="SVGID_1_" gradientUnits="userSpaceOnUse" x1="0" y1="24.3988" x2="128.895" y2="24.3988">
		<stop  offset="0" style="stop-color:#6B0F42"/>
		<stop  offset="1" style="stop-color:#2AA186"/>
	</linearGradient>
	<path class="st0" d="M113.1,13.39c-1.95-0.01-3.78-0.01-5.61-0.04c-0.18,0-0.42-0.19-0.53-0.35c-1.55-2.45-3.82-3.87-6.54-4.75
		c-8.16-2.64-16.31-5.36-24.46-8.03c-1.79-0.59-3.52,0-4.62,1.49c-1.04,1.4-1.1,3.34-0.01,4.77c0.46,0.6,1.15,1.13,1.84,1.44
		c2.1,0.93,4.26,1.74,6.4,2.58c1.33,0.52,2.33,1.36,2.89,2.65c-4.43-0.01-8.82-0.01-13.23-0.02c0.03-0.07,0.07-0.19,0.12-0.32
		c1.14-2.86-0.69-5.6-3.77-5.62c-2.27-0.01-4.55,0-6.82,0c-9.15,0-18.31,0-27.46,0c-3.75,0-6.78,1.47-9.01,4.49
		c-0.32,0.44-0.65,0.64-1.2,0.59c-0.81-0.07-1.64-0.07-2.59-0.1l-2.57,0.15c-3.5-0.03-6.99-0.02-10.49-0.01
		c-3.22,0-5.42,2.19-5.43,5.4C0,21.81,0,25.9,0.01,30c0.01,3.23,2.19,5.39,5.42,5.4c2.33,0.01,4.66,0.01,6.99,0
		c1.47-0.01,2.94-0.04,4.34-0.07c0,0,0,0.01,0,0.01c0.08-0.01,0.15-0.02,0.24-0.02c0.19,0,0.35,0.04,0.49,0.09c0.03,0,0.07,0,0.1,0
		c0.08,0,0.16,0.01,0.23,0.02c0.02,0,0.04,0,0.06,0c0.16,0,0.31,0.02,0.45,0.07c0.03,0,0.06,0,0.08,0c0.12,0,0.22,0.01,0.32,0.04
		c0,0,0-0.01,0-0.01c0.91-0.02,1.77-0.06,2.63-0.04c0.18,0,0.42,0.18,0.53,0.34c1.16,1.78,2.7,3.12,4.61,4.05
		c0.06,0.03,0.13,0.08,0.19,0.13c0.2,0.04,0.36,0.12,0.5,0.23c0.18,0.02,0.34,0.07,0.48,0.14c0.14,0.01,0.26,0.04,0.38,0.08
		c0.21,0.02,0.39,0.09,0.54,0.18c0.16,0.01,0.31,0.04,0.44,0.1c0-0.01,0-0.01,0-0.02c2.97,0.98,5.78,1.89,8.57,2.84l3.28,1.14
		c0.31,0.08,0.57,0.14,0.81,0.22c3.64,1.2,7.28,2.41,10.93,3.61c2.41,0.79,4.64-0.19,5.46-2.39c0.8-2.14-0.25-4.37-2.54-5.32
		c-2.15-0.89-4.33-1.72-6.49-2.59c-1.21-0.48-2.1-1.3-2.59-2.45c4.4,0.02,8.78,0.03,13.12,0.05c-1.09,2.15-0.29,5.16,3.25,5.9
		l4.39-0.09c10.09-0.02,20.18-0.03,30.27-0.02c3.79,0,6.81-1.48,9.12-4.5c0.23-0.3,0.72-0.54,1.1-0.56
		c1.64-0.11,3.28-0.12,5.14-0.18l2.62,0.11c2.5,0.05,5,0.03,7.51,0.03c3.59-0.01,5.89-2.34,5.89-5.95c0-3.75-0.01-7.51,0-11.26
		c0-3.52-2.35-5.88-5.89-5.88c-2.7,0-5.4,0.02-8.16,0.04L113.1,13.39z M28.03,38.53c-1.23-0.42-2.32-1.26-3.48-1.91l0.08-0.16
		c-0.37-0.47-0.81-0.9-1.09-1.41c-0.58-1.07-1.46-1.38-2.61-1.37c-5.17,0.03-10.35,0.05-15.52-0.02c-0.82-0.01-1.7-0.38-2.43-0.81
		c-0.91-0.54-1.25-1.53-1.25-2.58C1.71,26,1.7,21.73,1.73,17.47c0.01-2.05,1.5-3.44,3.65-3.44c5.32-0.01,10.63-0.02,15.95,0
		c1,0,1.7-0.35,2.29-1.18c1.87-2.66,4.49-3.91,7.73-3.91c8.73,0,17.46,0,26.19,0c2.7,0,5.4,0,8.1,0c0.93,0,1.66,0.37,2.09,1.22
		c0.4,0.78,0.31,1.55-0.17,2.26c-0.5,0.73-1.25,0.92-2.09,0.92c-3.98,0-7.96,0-11.94,0c-0.28,0-0.57-0.01-0.85-0.01
		c-0.56,0.01-0.96,0.26-0.97,0.85c-0.01,0.59,0.39,0.85,0.95,0.86c1.76,0.01,3.53,0.01,5.29,0.01c5.12,0,10.24,0,15.35,0
		c1.74,0,2.88,1.04,2.85,2.59c-0.02,1.49-1.17,2.51-2.85,2.51c-7.14,0-14.27,0-21.41,0c-0.28,0-0.57,0-0.85,0.01
		c-0.53,0.02-0.88,0.28-0.89,0.83c-0.01,0.54,0.32,0.84,0.86,0.86c0.57,0.02,1.14,0.02,1.71,0.02c8.33,0,16.66,0,24.99,0
		c1.59,0,2.76,1.05,2.78,2.49c0.03,1.5-1.1,2.6-2.75,2.61c-8.07,0.01-16.15,0.01-24.22,0.01c-0.31,0-0.63,0-0.94,0.01
		c-0.53,0.03-0.87,0.29-0.87,0.84c0,0.55,0.35,0.83,0.88,0.84c0.97,0.02,1.93,0.01,2.9,0.01c5.97,0,11.94-0.01,17.91,0
		c1.38,0,2.32,0.69,2.64,1.86c0.31,1.12-0.05,2.24-1.07,2.8c-0.52,0.28-1.18,0.42-1.78,0.42c-8.64,0.03-17.29,0.02-25.93,0.02
		c-0.45,0-0.93-0.01-1.35,0.12c-1.04,0.33-1.5,1.44-1.04,2.51c0.71,1.65,1.93,2.79,3.59,3.46c2.14,0.86,4.28,1.7,6.42,2.55
		c1.41,0.56,2.05,1.77,1.62,3.03c-0.45,1.32-1.71,1.92-3.19,1.43C44.86,44.12,36.43,41.37,28.03,38.53z M127.17,30.91
		c-0.02,2.21-1.56,3.86-3.7,3.88c-5.03,0.04-10.06,0.02-15.09,0.02c-0.13,0-0.27-0.03-0.47-0.05c0.73-2.13,0.92-4.26,0.38-6.42
		c-0.02-0.08-0.04-0.17-0.06-0.25c-0.16-0.6-0.35-1.24-1.16-1.05c-0.81,0.2-0.68,0.83-0.52,1.45c1.52,5.85-2.68,11.38-8.73,11.4
		c-11.4,0.03-22.8-0.01-34.19,0.04c-2.21,0.01-3.07-1.73-2.51-3.05c0.42-0.98,1.21-1.37,2.25-1.36c3.16,0.01,6.32-0.17,9.46,0.04
		c3.73,0.24,6.3-3.27,4.27-6.85c1.74,0.07,3.29-0.29,4.2-1.75c0.49-0.78,0.84-1.78,0.85-2.68c0.03-2.46-1.67-3.82-4.87-4.16
		c0.19-0.83,0.52-1.67,0.52-2.51c0-0.81-0.33-1.63-0.56-2.68c1.47,0.04,2.96,0.09,4.45,0.13c0.26,0.01,0.51,0.02,0.77,0
		c1.38-0.11,2.17-1.38,1.6-2.64c-0.73-1.63-1.96-2.77-3.62-3.43c-2.19-0.88-4.38-1.74-6.57-2.63c-1.08-0.44-1.63-1.33-1.55-2.39
		c0.08-1.04,0.77-1.91,1.8-2.1c0.45-0.08,0.98-0.05,1.42,0.09c8.45,2.76,16.92,5.48,25.33,8.36c3.61,1.23,5.55,3.98,5.98,7.78
		c0.02,0.17,0.03,0.34,0.03,0.51c0.01,0.6,0.27,1.02,0.91,0.99c0.65-0.03,0.85-0.52,0.78-1.09c-0.09-0.82-0.22-1.63-0.34-2.44
		c-0.04-0.27-0.13-0.54-0.23-0.94c1.87,0.01,3.65,0.03,5.44,0.03c3.21,0.01,6.42,0,9.64,0c2.48,0,4.1,1.56,4.11,4.01
		C127.2,23.06,127.2,26.98,127.17,30.91z"/>
	<linearGradient id="SVGID_2_" gradientUnits="userSpaceOnUse" x1="85.3497" y1="21.1319" x2="100.6728" y2="21.1319">
		<stop  offset="0" style="stop-color:#6B0F42"/>
		<stop  offset="1" style="stop-color:#2AA186"/>
	</linearGradient>
	<path class="st1" d="M88.41,22.25c-0.96-1.48-1.91-2.92-2.83-4.38c-0.33-0.52-0.35-1.07,0.28-1.38c0.64-0.31,0.99,0.09,1.26,0.63
		c1.18,2.4,2.84,4.38,5.2,5.7c2,1.13,4.13,1.56,6.41,1.21c0.22-0.03,0.45-0.07,0.67-0.12c0.6-0.14,1.13-0.06,1.26,0.63
		c0.13,0.69-0.38,0.94-0.95,1.06c-2.53,0.54-5.01,0.32-7.31-0.84C91.01,24.07,89.75,23.11,88.41,22.25z"/>
</g>
</svg>
