<?xml version="1.0" encoding="utf-8"?>
<!-- Generator: Adobe Illustrator 25.2.1, SVG Export Plug-In . SVG Version: 6.00 Build 0)  -->
<svg version="1.1" id="Capa_1" xmlns="http://www.w3.org/2000/svg" xmlns:xlink="http://www.w3.org/1999/xlink" x="0px" y="0px"
	 viewBox="0 0 87.63 55.64" style="enable-background:new 0 0 87.63 55.64;" xml:space="preserve">
<style type="text/css">
	.st0{fill:url(#SVGID_1_);}
</style>
<linearGradient id="SVGID_1_" gradientUnits="userSpaceOnUse" x1="0" y1="27.8222" x2="87.6276" y2="27.8222">
	<stop  offset="0" style="stop-color:#6B0F42"/>
	<stop  offset="1" style="stop-color:#2AA186"/>
</linearGradient>
<path class="st0" d="M76.61,33.62c-1.2,0-2.36,0.2-3.44,0.55c-1.54-3.44-3.1-6.66-3.97-7.67c0.92,0.44,1.94,0.68,3,0.68
	c0.4,0,0.8-0.03,1.2-0.1l1.63-0.28c0.27-0.05,0.51-0.22,0.64-0.46c0.13-0.24,0.14-0.53,0.03-0.79l-3.36-7.66
	c-1.07-2.44-3.57-3.89-6.22-3.6c-0.65,0.07-1.29,0.14-1.91,0.21l-1.39-3.34c-0.02-0.46-0.14-1.66-0.71-3.08
	c-0.5-1.25-1.96-2.42-3.1-3.17c-0.4-0.26-0.7-0.64-0.87-1.09l-1.24-3.24c-0.18-0.46-0.7-0.69-1.16-0.52
	c-0.46,0.18-0.69,0.7-0.52,1.16l1.24,3.24c0.31,0.8,0.85,1.47,1.55,1.94c1.29,0.85,2.17,1.71,2.43,2.34
	c0.26,0.65,0.41,1.25,0.49,1.71h-6.18c-0.5,0-0.9,0.4-0.9,0.9s0.4,0.9,0.9,0.9h6.58l1.02,2.45c-7.21,0.78-11.51,1.23-12.01,1.25
	c-0.01,0-0.01,0-0.02,0c0,0,0,0,0,0c-0.21-0.01-0.35-0.01-0.44,0c-0.29,0.03-1.55,0.21-2.94,1.61c-0.58,0.58-2.53,2.21-2.55,2.23
	c-0.01,0.01-0.02,0.02-0.03,0.03c-0.03,0.03-0.06,0.05-0.08,0.08c-0.03,0.04-3.22,3.62-12.4,3.93c-7.31,0.24-12.02-2.57-13.7-3.78
	c0.02-0.12,0.03-0.25,0.03-0.38c0-1.66-1.35-3.02-3.02-3.02H7.02C5.35,16.64,4,18,4,19.66c0,1.06,0.55,1.99,1.37,2.53l-1.5,1.11
	c-0.23,0.17-0.36,0.44-0.36,0.72v6.55c0,0.27,0.12,0.52,0.33,0.69l2.8,2.31c0.16,0.13,0.36,0.21,0.57,0.21h1.94
	C3.96,34.67,0,39.2,0,44.63c0,6.07,4.94,11.01,11.01,11.01c4.3,0,8.02-2.47,9.84-6.07h39.71c0.27,0,0.53-0.13,0.7-0.34
	c0.17-0.21,0.23-0.5,0.17-0.76c-0.01-0.04-0.78-3.62,1.98-10.69c0.65-1.66,3.86-5.79,5.68-8.04c0.68,1.33,1.53,3.14,2.42,5.13
	C68,36.71,65.6,40.4,65.6,44.63c0,6.07,4.94,11.01,11.01,11.01c6.07,0,11.01-4.94,11.01-11.01S82.69,33.62,76.61,33.62z
	 M63.07,16.42l2.68,6.44c0.19,0.45,0.42,0.86,0.68,1.25c-2.84-2.15-6.5-4.32-9.32-5.74c-0.86-0.43-1.61-0.78-2.29-1.07
	C56.69,17.1,59.33,16.82,63.07,16.42z M31.93,25.62c8.09-0.27,11.93-2.93,13.21-4.07c0.67,0.31,1.86,0.9,3.14,1.65
	c-0.99,1.05-3.46,3.02-8.57,3.86c-6.91,1.14-18.52,0.89-20.47,0.83l-0.56-0.42v-3.51c0-0.22-0.08-0.43-0.23-0.6l-1.29-1.44
	c0.08-0.07,0.15-0.14,0.22-0.22C19.48,23.17,24.4,25.88,31.93,25.62z M49.48,36.15H30.24c-0.03-0.03-0.06-0.05-0.09-0.07l-8.45-6.34
	c0.74,0.01,1.6,0.02,2.55,0.02c4.56,0,11.1-0.16,15.75-0.92c5.96-0.98,8.75-3.41,9.82-4.67c0.86,0.57,1.68,1.2,2.32,1.84
	c2.21,2.21,3.32,5.48,2.7,7.96C54.49,35.44,51.09,36.07,49.48,36.15z M53.52,37.18v0.64c0,2.12-1.54,3.88-3.56,4.24v-4.14
	C50.7,37.86,52.15,37.68,53.52,37.18z M47.97,40.22c0,1.03-0.84,1.88-1.88,1.88c-1.03,0-1.88-0.84-1.88-1.88s0.84-1.88,1.88-1.88
	C47.13,38.35,47.97,39.19,47.97,40.22z M42.3,37.95v4.18H27.61c0.17-0.21,0.31-0.39,0.41-0.51c2.62-3.15,6.48-3.63,6.83-3.66H42.3z
	 M7.02,18.44h8.16c0.67,0,1.22,0.55,1.22,1.22c0,0.67-0.55,1.22-1.22,1.22H7.44H7.02c-0.67,0-1.22-0.55-1.22-1.22
	C5.79,18.99,6.34,18.44,7.02,18.44z M5.3,30.15v-5.67l2.43-1.79h7.44h0.26l1.45,1.62v6.01l-2.55,1.66H7.53L5.3,30.15z M14.6,33.78
	c0.17,0,0.34-0.05,0.49-0.15l3.18-2.08c0.25-0.17,0.41-0.45,0.41-0.75v-1.09l8.58,6.43h-9.22c-1.45-1.2-3.21-2.04-5.14-2.38H14.6z
	 M11.01,53.85c-5.08,0-9.22-4.14-9.22-9.22s4.14-9.22,9.22-9.22c4.22,0,7.79,2.85,8.88,6.73c-0.17-0.1-0.34-0.19-0.52-0.26
	l-2.78-1.09c-1.22-1.77-3.26-2.94-5.57-2.94c-3.73,0-6.77,3.04-6.77,6.77c0,3.73,3.04,6.77,6.77,6.77c2.11,0,4-0.97,5.25-2.5
	l0.3,0.12c0.45,0.18,0.93,0.27,1.4,0.27c0.37,0,0.73-0.06,1.09-0.16C17.48,51.94,14.47,53.85,11.01,53.85z M9.67,46.03
	c0.09,0.22,0.27,0.39,0.49,0.48l4.31,1.7c-0.9,0.87-2.11,1.4-3.46,1.4c-2.74,0-4.98-2.23-4.98-4.98s2.23-4.98,4.98-4.98
	c0.29,0,0.58,0.03,0.86,0.08c-0.03,0.05-0.05,0.09-0.07,0.14l-2.15,5.47C9.57,45.56,9.57,45.81,9.67,46.03z M15.54,46.69l-3.89-1.53
	l1.49-3.8l2.24,0.88l2.23,0.88l1.1,0.43c1.05,0.41,1.56,1.6,1.15,2.64c-0.2,0.51-0.58,0.91-1.08,1.12c-0.5,0.22-1.05,0.23-1.56,0.03
	l-0.01,0L15.54,46.69z M19.76,37.95h9.81c-1,0.61-2.02,1.43-2.93,2.52c-0.8,0.96-3.4,4.44-4.84,6.37c0.15-0.71,0.22-1.45,0.22-2.21
	C22.03,42.12,21.18,39.8,19.76,37.95z M59.55,47.78H23.34c0.8-1.08,1.92-2.58,2.89-3.86h22.98c3.36,0,6.1-2.74,6.1-6.1v-1.59
	c0.32-0.24,0.6-0.52,0.82-0.84l4.97,3.46C59.59,43.32,59.46,46.29,59.55,47.78z M61.75,37.11l-5.01-3.48
	c0.41-2.96-0.86-6.44-3.32-8.89c-1.91-1.91-5.06-3.61-6.82-4.48c0.59-0.51,1.27-1.1,1.6-1.43c1-1,1.79-1.09,1.8-1.09
	c0.04,0,0.08-0.01,0.12-0.01c0,0,0.01,0,0.03,0c0.02,0,0.06,0.01,0.11,0.01c0.46,0.04,2.19,0.32,6.04,2.25
	c3.83,1.91,9.01,5.16,11.52,7.66c0.09,0.09,0.2,0.24,0.33,0.42C67,29.46,62.64,34.84,61.75,37.11z M67.41,22.17l-2.48-5.95
	c0.45-0.05,0.91-0.1,1.38-0.15c1.87-0.2,3.63,0.82,4.38,2.54l2.9,6.61L73.1,25.3C70.69,25.71,68.35,24.43,67.41,22.17z M76.61,53.85
	c-5.08,0-9.22-4.14-9.22-9.22c0-3.5,1.96-6.55,4.85-8.11c0.33,0.75,0.65,1.51,0.98,2.27c-2.01,1.17-3.38,3.35-3.38,5.85
	c0,3.73,3.04,6.77,6.77,6.77s6.77-3.04,6.77-6.77c0-3.73-3.04-6.77-6.77-6.77c-0.6,0-1.18,0.09-1.74,0.23
	c-0.31-0.74-0.64-1.5-0.98-2.27c0.86-0.27,1.77-0.41,2.72-0.41c5.08,0,9.22,4.14,9.22,9.22S81.7,53.85,76.61,53.85z M77.45,44.3
	c-0.21-0.51-0.92-2.29-1.86-4.53c0.33-0.07,0.68-0.11,1.03-0.11c2.74,0,4.98,2.23,4.98,4.98s-2.23,4.98-4.98,4.98
	c-2.74,0-4.98-2.23-4.98-4.98c0-1.75,0.91-3.29,2.29-4.18c0.68,1.61,1.31,3.16,1.86,4.52c0.14,0.35,0.48,0.56,0.83,0.56
	c0.11,0,0.22-0.02,0.33-0.07C77.41,45.28,77.63,44.76,77.45,44.3z"/>
</svg>
