<?xml version="1.0" encoding="utf-8"?>
<!-- Generator: Adobe Illustrator 25.2.1, SVG Export Plug-In . SVG Version: 6.00 Build 0)  -->
<svg version="1.1" id="Capa_1" xmlns="http://www.w3.org/2000/svg" xmlns:xlink="http://www.w3.org/1999/xlink" x="0px" y="0px"
	 viewBox="0 0 63.12 59.18" style="enable-background:new 0 0 63.12 59.18;" xml:space="preserve">
<style type="text/css">
	.st0{fill:url(#SVGID_1_);}
	.st1{fill:url(#SVGID_2_);}
	.st2{fill:url(#SVGID_3_);}
</style>
<g>
	<linearGradient id="SVGID_1_" gradientUnits="userSpaceOnUse" x1="63.6467" y1="29.5908" x2="0.5294" y2="29.5908">
		<stop  offset="0" style="stop-color:#6B0F42"/>
		<stop  offset="1" style="stop-color:#2AA186"/>
	</linearGradient>
	<path class="st0" d="M15.42,56.63c4.13,0,8.1,0,12.08,0c0-6.96,0-13.81,0-20.7c-4.05,0-8.01,0-12.08,0c0,0.52,0,0.93,0,1.34
		c0,3.67,0,7.33,0,11c0,0.91,0.01,1.91-1.23,1.91c-1.23-0.01-1.21-1.02-1.21-1.92c0-4.33-0.01-8.66,0.01-13
		c0.01-1.61,0.29-1.87,1.92-1.87c4.42,0,8.83,0,13.25,0.01c1.56,0,1.85,0.32,1.85,1.94c0,6.71,0,13.41,0.01,20.12
		c0,0.4,0.03,0.8,0.05,1.21c8.21,0,16.32,0,24.48,0c0.03-0.36,0.09-0.64,0.09-0.92c0-9.62,0.01-19.24-0.05-28.87
		c0-0.54-0.44-1.25-0.89-1.6c-7.07-5.48-14.19-10.91-21.27-16.38c-0.63-0.49-1.06-0.54-1.72-0.03c-7.15,5.52-14.33,11-21.47,16.53
		c-0.41,0.32-0.75,1.01-0.76,1.53c-0.05,8.83-0.03,17.66-0.03,26.49c0,1.07,0,2.14,0,3.2c1.6,0,3.02,0,4.54,0c0-0.82,0-1.52,0-2.23
		c-0.01-0.79,0.36-1.31,1.16-1.35c0.81-0.04,1.21,0.48,1.26,1.25C15.45,55.04,15.42,55.79,15.42,56.63z M5.94,34.49
		c0-2.13,0-4.23,0-6.2c-1.02,0.1-2.1,0.42-3.1,0.26c-1.46-0.23-2.42-1.3-2.74-2.76c-0.35-1.58,0.28-2.85,1.54-3.82
		c3.34-2.56,6.68-5.12,10.01-7.68C17.3,9.97,22.96,5.64,28.6,1.29c2.19-1.69,3.67-1.73,5.83-0.08c4.29,3.3,8.59,6.59,12.85,9.93
		c0.42,0.33,0.85,1,0.83,1.49c-0.04,1.03-1.18,1.27-2.2,0.49c-3.34-2.55-6.67-5.12-10-7.69c-1.09-0.84-2.2-1.65-3.27-2.52
		c-0.72-0.58-1.36-0.61-2.12-0.03C21.45,9.88,12.36,16.85,3.27,23.82c-0.67,0.52-1.09,1.13-0.53,1.9c0.63,0.86,1.36,0.52,2.06-0.01
		c6.17-4.75,12.35-9.49,18.53-14.23c2.31-1.78,4.65-3.52,6.93-5.34c0.95-0.76,1.72-0.71,2.66,0.02c8.2,6.34,16.43,12.65,24.65,18.97
		c0.4,0.3,0.77,0.75,1.22,0.85c0.49,0.11,1.35,0.05,1.5-0.22c0.22-0.42,0.17-1.3-0.14-1.61c-0.91-0.9-1.99-1.63-3.02-2.41
		c-2.11-1.62-4.23-3.25-6.35-4.86c-0.68-0.51-1.29-1.09-0.63-1.96c0.68-0.9,1.44-0.51,2.16,0.05c2.97,2.29,5.95,4.56,8.92,6.85
		c1.93,1.48,2.4,3.29,1.35,5.1c-0.97,1.68-2.78,2.14-5.01,1.29c-0.11-0.04-0.24-0.04-0.4-0.06c0,2.13,0,4.22,0,6.49l0.03,16.89
		c0,1.79,0,3.47,0,5.18l0,2.49c-17.09,0-34.18,0.01-51.27,0.01l0-2.52c0-1.74,0-3.4,0-5.41L5.94,34.49z"/>
	<linearGradient id="SVGID_2_" gradientUnits="userSpaceOnUse" x1="63.9401" y1="41.8957" x2="0.4192" y2="41.8957">
		<stop  offset="0" style="stop-color:#6B0F42"/>
		<stop  offset="1" style="stop-color:#2AA186"/>
	</linearGradient>
	<path class="st1" d="M41.68,50.41c-2.54,0-5.08,0.01-7.62,0c-1.61-0.01-2.25-0.68-2.26-2.29c-0.01-0.87,0.03-1.75-0.02-2.62
		c-0.05-0.96,0.25-1.67,1.08-2.22c0.29-0.2,0.5-0.72,0.51-1.11c0.05-2.29,0.01-4.58,0.04-6.87c0.02-1.6,0.35-1.92,1.91-1.92
		c4.25,0,8.5,0,12.74,0.01c1.86,0.01,2.05,0.2,2.06,2.11c0.01,2.21-0.03,4.42,0.03,6.62c0.01,0.43,0.42,0.85,0.66,1.27
		c0.04,0.06,0.14,0.08,0.21,0.14c1.05,0.85,1.12,5.62,0.02,6.42c-0.43,0.31-1.07,0.44-1.62,0.45
		C46.84,50.43,44.26,50.41,41.68,50.41z M49.26,45.62c-5.04,0-9.98,0-14.92,0c0,0.81,0,1.53,0,2.24c5.03,0,9.96,0,14.92,0
		C49.26,47.09,49.26,46.43,49.26,45.62z M35.93,35.89c0,2.48,0,4.79,0,7.14c1.56,0,3.03,0,4.51,0c0-2.43,0-4.78,0-7.14
		C38.9,35.89,37.45,35.89,35.93,35.89z M43.07,43.04c1.54,0,3.01,0,4.52,0c0-2.42,0-4.76,0-7.11c-1.56,0-3.03,0-4.52,0
		C43.07,38.34,43.07,40.65,43.07,43.04z"/>
	<linearGradient id="SVGID_3_" gradientUnits="userSpaceOnUse" x1="63.3459" y1="21.2785" x2="0.6917" y2="21.2785">
		<stop  offset="0" style="stop-color:#6B0F42"/>
		<stop  offset="1" style="stop-color:#2AA186"/>
	</linearGradient>
	<path class="st2" d="M31.54,14.39c3.83-0.02,6.92,3.05,6.91,6.86c-0.02,3.78-3.18,6.94-6.94,6.92c-3.71-0.02-6.79-3.12-6.83-6.88
		C24.64,17.44,27.65,14.41,31.54,14.39z M30.27,17.03c-1.58,0.48-2.47,1.44-2.96,2.98c1.05,0,1.97,0,2.96,0
		C30.27,19.04,30.27,18.14,30.27,17.03z M32.86,17.05c0,1.06,0,1.99,0,2.97c1.01,0,1.93,0,3,0C35.24,18.56,34.47,17.48,32.86,17.05z
		 M27.33,22.59c0.56,1.47,1.44,2.39,2.93,2.85c0-0.99,0-1.88,0-2.85C29.31,22.59,28.42,22.59,27.33,22.59z M32.81,25.47
		c1.52-0.52,2.42-1.41,2.92-2.87c-1.04,0-1.96,0-2.92,0C32.81,23.55,32.81,24.41,32.81,25.47z"/>
</g>
</svg>
