<?xml version="1.0" encoding="utf-8"?>
<!-- Generator: Adobe Illustrator 25.2.1, SVG Export Plug-In . SVG Version: 6.00 Build 0)  -->
<svg version="1.1" id="Capa_1" xmlns="http://www.w3.org/2000/svg" xmlns:xlink="http://www.w3.org/1999/xlink" x="0px" y="0px"
	 viewBox="0 0 454 96.63" style="enable-background:new 0 0 454 96.63;" xml:space="preserve">
<style type="text/css">
	.st0{fill:#FFFFFF;}
</style>
<g>
	<g>
		<g>
			<g>
				<g>
					<path class="st0" d="M66.73,28.77C64.41,12.42,50.31-0.1,33.33,0C14.81,0.11-0.11,15.21,0,33.74
						c0.09,15.18,22.81,47.67,31.01,58.9c1.43,1.96,4.36,1.94,5.76-0.03c4.43-6.22,13.16-18.91,20.11-31.6l0,0
						c0.01-0.01,0.01-0.01,0.01-0.02c0.02-0.05,0.05-0.1,0.08-0.15c0,0,0.01,0,0-0.01c0.57-1.05,1.17-2.16,1.74-3.24
						c0.31-0.6,0.01-1.33-0.63-1.54c-1.23-0.4-3.07-0.96-4.03-1.25c-5.75-1.73-11.42-3.72-16.99-6c-4.08-1.67-7.9-3.83-10.9-7.2
						c-3.61-4.05-4.02-9.89-0.8-13.35c3.23-3.46,7.25-3.35,11.44-2.24c5.92,1.57,11.29,3.63,17.42,5.04
						c1.64,0.37,7.42,1.83,10.7,2.66c1.14,0.29,2.22-0.64,2.11-1.81C66.92,30.41,66.75,28.8,66.73,28.77z M37.29,21.96
						c-5.89-1.56-11.56-1.72-16.09,3.15c-4.54,4.88-3.95,13.08,1.12,18.79c4.21,4.74,9.59,7.78,15.33,10.13
						c4.16,1.7,8.36,3.28,12.6,4.76c0.71,0.25,1.03,1.08,0.65,1.74c-4.96,8.58-10.52,16.76-13.9,21.56
						c-1.54,2.18-4.76,2.2-6.33,0.04C23.32,71.96,5.8,46.48,5.73,34.34C5.64,18.98,18.01,6.45,33.37,6.36
						c12.05-0.07,22.35,7.53,26.28,18.23c0.55,1.51-0.8,3.04-2.36,2.67C50.59,25.68,43.96,23.72,37.29,21.96z"/>
					<g id="XMLID_13_">
						<g>
							<path class="st0" d="M40.77,35.36c0.04,3.82-3.16,6.91-7.13,6.89c-3.89-0.02-7.01-3.22-6.91-7.11
								c0.09-3.6,3.39-6.89,6.93-6.91C37.31,28.2,40.72,31.62,40.77,35.36z M33.74,38.96c2.1,0.01,3.81-1.63,3.78-3.66
								c-0.02-1.98-1.83-3.8-3.77-3.79c-1.88,0.01-3.63,1.77-3.68,3.67C30.01,37.25,31.67,38.95,33.74,38.96z"/>
						</g>
					</g>
					<path class="st0" d="M60.89,35.02c-0.47,0-0.86,0.36-0.9,0.83c-0.16,1.89-0.78,6.67-2.99,10.41c-1.32,2.23-2,3.52-2.36,4.25
						c-0.24,0.5,0.03,1.09,0.56,1.25l0.51,0.15c0.38,0.11,0.79-0.04,1.01-0.37c0.97-1.46,3.27-5.56,4.15-8.76
						c0.91-3.34,1.25-4.37,0.92-6.79C61.72,35.47,61.42,35.02,60.89,35.02L60.89,35.02z"/>
					<path class="st0" d="M55.59,34.15c0.79,0.17,1.32,0.91,1.22,1.71c-0.25,1.96-0.86,5.57-2.18,8.47
						c-1.08,2.37-2.05,4.17-2.7,5.28c-0.42,0.73-1.35,0.99-2.09,0.59l-1.06-0.58c-0.83-0.45-1.07-1.53-0.5-2.29
						c1.09-1.47,2.72-4.06,3.75-7.56c0.68-2.29,1.08-3.71,1.32-4.59c0.22-0.8,1.02-1.28,1.83-1.11L55.59,34.15z"/>
				</g>
			</g>
		</g>
	</g>
	<g>
		<g>
			<path class="st0" d="M121.53,52.97c0.34,1.14,1.95,1.13,2.28-0.01l2.86-9.75c0.19-0.73,0.39-1.51,0.58-2.32
				c0.19-0.81,0.32-1.62,0.38-2.43c0.06-0.81,0.03-1.56-0.09-2.26c-0.04-0.25-0.15-0.58-0.27-0.91c-0.21-0.57,0.21-1.17,0.82-1.17
				h12.15c0.71,0,1.12,0.8,0.72,1.38c-0.67,0.95-1.5,2.22-1.98,3.23c-0.87,1.87-1.63,3.95-2.29,6.23l-8.55,28.87
				c-0.15,0.51-0.61,0.85-1.14,0.85h-8.24c-0.53,0-0.99-0.35-1.14-0.85l-5.44-18.33c-0.34-1.14-1.95-1.14-2.29,0l-5.39,18.33
				c-0.15,0.51-0.61,0.86-1.14,0.86h-8.24c-0.53,0-0.99-0.35-1.14-0.85l-8.55-28.87c-0.66-2.28-1.42-4.35-2.29-6.23
				c-0.47-1.01-1.31-2.28-1.98-3.23c-0.41-0.58,0.01-1.38,0.72-1.38h12.15c0.61,0,1.03,0.6,0.82,1.17
				c-0.12,0.33-0.23,0.66-0.27,0.91c-0.12,0.7-0.14,1.45-0.09,2.26c0.06,0.81,0.18,1.62,0.38,2.43c0.19,0.81,0.39,1.58,0.58,2.32
				l2.86,9.74c0.33,1.14,1.95,1.14,2.29,0l2.39-8.06v0.06c0.19-0.69,0.42-1.52,0.69-2.49c0.27-0.97,0.48-1.94,0.64-2.93
				c0.15-0.98,0.19-1.93,0.12-2.84c-0.03-0.39-0.2-0.92-0.38-1.4c-0.21-0.57,0.21-1.18,0.82-1.18h12.34c0.6,0,1.03,0.6,0.82,1.17
				c-0.13,0.35-0.24,0.71-0.28,0.98c-0.12,0.73-0.14,1.51-0.06,2.32c0.08,0.81,0.21,1.64,0.41,2.49c0.19,0.85,0.39,1.64,0.58,2.38
				L121.53,52.97z"/>
			<path class="st0" d="M157.25,34.11c0.64,0,1.06,0.66,0.8,1.23c-0.46,1.02-1.05,2.49-1.22,3.75c-0.29,2.16-0.43,4.63-0.43,7.42
				v3.92c0,0.72,0.63,1.27,1.34,1.18l10.65-1.33c0.6-0.07,1.04-0.58,1.04-1.18v-2.6c0-2.78-0.14-5.25-0.43-7.42
				c-0.17-1.25-0.75-2.73-1.22-3.75c-0.26-0.58,0.16-1.23,0.8-1.23h12.14c0.64,0,1.06,0.66,0.8,1.23c-0.46,1.02-1.05,2.49-1.22,3.75
				c-0.29,2.16-0.43,4.63-0.43,7.42v15.76c0,2.78,0.14,5.25,0.43,7.42c0.17,1.25,0.75,2.73,1.22,3.75c0.26,0.58-0.16,1.23-0.8,1.23
				h-12.14c-0.64,0-1.06-0.66-0.8-1.23c0.46-1.02,1.05-2.49,1.22-3.75c0.29-2.16,0.43-4.63,0.43-7.42v-3.29
				c0-0.72-0.63-1.27-1.34-1.18l-10.65,1.33c-0.6,0.07-1.04,0.58-1.04,1.18v1.96c0,2.78,0.14,5.25,0.43,7.42
				c0.17,1.25,0.75,2.73,1.22,3.75c0.26,0.58-0.16,1.23-0.8,1.23h-12.14c-0.64,0-1.06-0.66-0.8-1.23c0.46-1.02,1.05-2.49,1.22-3.75
				c0.29-2.16,0.43-4.63,0.43-7.42V46.51c0-2.78-0.14-5.25-0.43-7.42c-0.17-1.25-0.75-2.73-1.22-3.75c-0.26-0.58,0.16-1.23,0.8-1.23
				H157.25z"/>
			<path class="st0" d="M187.99,74.67c-0.64,0-1.06-0.66-0.8-1.23c0.46-1.02,1.05-2.49,1.22-3.75c0.29-2.16,0.43-4.63,0.43-7.42
				V46.51c0-2.78-0.14-5.25-0.43-7.42c-0.17-1.25-0.75-2.73-1.22-3.75c-0.26-0.58,0.16-1.23,0.8-1.23h17.83c1.24,0,2.46,0,3.68,0
				c1.22,0,2.36-0.03,3.42-0.09c1.06-0.06,2.01-0.14,2.84-0.26c0.4-0.06,0.96-0.15,1.42-0.24c0.48-0.09,0.94,0.23,1.02,0.71
				l1.63,9.67c0.12,0.72-0.63,1.26-1.27,0.92c-0.5-0.26-1-0.52-1.35-0.66c-0.91-0.37-1.87-0.64-2.9-0.81
				c-1.02-0.17-2.1-0.28-3.21-0.32c-1.12-0.04-2.32-0.06-3.59-0.06h-7.03c-0.66,0-1.19,0.53-1.19,1.19v5.15
				c0,0.66,0.53,1.19,1.19,1.19h2.82c1.89,0,3.61-0.1,5.16-0.29c0.83-0.1,1.89-0.46,2.69-0.78c0.57-0.22,1.19,0.2,1.19,0.82v8.94
				c0,0.67-0.71,1.09-1.3,0.77c-0.57-0.32-1.2-0.65-1.6-0.83c-0.89-0.39-1.82-0.67-2.81-0.84c-0.98-0.17-2.03-0.28-3.13-0.32
				c-1.1-0.04,0.31-0.06-0.97-0.06h-2.05c-0.66,0-1.19,0.53-1.19,1.19v5.5c0,0.66,0.53,1.19,1.19,1.19h7.9
				c1.27,0,2.47-0.01,3.59-0.03c1.12-0.02,2.19-0.12,3.22-0.29c1.02-0.17,1.99-0.45,2.9-0.84c0.34-0.15,0.85-0.41,1.34-0.67
				c0.64-0.35,1.4,0.2,1.28,0.92l-1.63,9.65c-0.08,0.48-0.54,0.8-1.02,0.72c-0.46-0.09-1.01-0.18-1.42-0.24
				c-0.83-0.12-1.78-0.2-2.84-0.26c-1.06-0.06-2.2-0.09-3.42-0.09c-1.22,0-2.44,0-3.68,0H187.99z"/>
			<path class="st0" d="M226.04,74.67c-0.64,0-1.06-0.66-0.8-1.23c0.46-1.02,1.05-2.49,1.22-3.75c0.29-2.16,0.43-4.63,0.43-7.42
				V46.51c0-2.78-0.14-5.25-0.43-7.42c-0.17-1.25-0.75-2.73-1.22-3.75c-0.26-0.58,0.16-1.23,0.8-1.23h17.83c1.24,0,2.46,0,3.68,0
				c1.22,0,2.36-0.03,3.42-0.09c1.06-0.06,2.01-0.14,2.84-0.26c0.4-0.06,0.96-0.15,1.42-0.24c0.48-0.09,0.94,0.23,1.02,0.71
				l1.63,9.67c0.12,0.72-0.63,1.26-1.27,0.92c-0.5-0.26-1-0.52-1.35-0.66c-0.91-0.37-1.87-0.64-2.9-0.81
				c-1.02-0.17-2.1-0.28-3.21-0.32c-1.12-0.04-2.32-0.06-3.59-0.06h-7.03c-0.66,0-1.19,0.53-1.19,1.19v5.15
				c0,0.66,0.53,1.19,1.19,1.19h2.82c1.89,0,3.61-0.1,5.16-0.29c0.83-0.1,1.89-0.46,2.69-0.78c0.57-0.22,1.19,0.2,1.19,0.82v8.94
				c0,0.67-0.71,1.09-1.3,0.77c-0.57-0.32-1.2-0.65-1.6-0.83c-0.89-0.39-1.82-0.67-2.81-0.84c-0.98-0.17-2.03-0.28-3.13-0.32
				c-1.1-0.04,0.31-0.06-0.97-0.06h-2.05c-0.66,0-1.19,0.53-1.19,1.19v5.5c0,0.66,0.53,1.19,1.19,1.19h7.9
				c1.27,0,2.47-0.01,3.59-0.03c1.12-0.02,2.19-0.12,3.22-0.29c1.02-0.17,1.99-0.45,2.9-0.84c0.34-0.15,0.85-0.41,1.34-0.67
				c0.64-0.35,1.4,0.2,1.28,0.92l-1.63,9.65c-0.08,0.48-0.54,0.8-1.02,0.72c-0.46-0.09-1.01-0.18-1.42-0.24
				c-0.83-0.12-1.78-0.2-2.84-0.26c-1.06-0.06-2.2-0.09-3.42-0.09c-1.22,0-2.44,0-3.68,0H226.04z"/>
			<path class="st0" d="M276.35,34.11c0.64,0,1.06,0.66,0.8,1.23c-0.46,1.02-1.05,2.49-1.22,3.75c-0.29,2.16-0.43,4.63-0.43,7.42
				v18.1c0,0.66,0.53,1.19,1.19,1.19h5.99c1.27,0,2.48-0.01,3.62-0.03c1.14-0.02,2.22-0.12,3.24-0.29c1.02-0.17,1.99-0.45,2.9-0.84
				c0.34-0.15,0.84-0.4,1.33-0.67c0.64-0.35,1.4,0.2,1.28,0.92l-1.68,9.67c-0.08,0.47-0.53,0.79-1,0.71
				c-0.41-0.07-0.89-0.15-1.23-0.2c-0.73-0.12-1.56-0.2-2.49-0.26c-0.93-0.06-1.92-0.1-2.98-0.12c-1.06-0.02-2.15-0.03-3.27-0.03
				h-18.18c-0.64,0-1.06-0.66-0.8-1.23c0.46-1.02,1.05-2.49,1.22-3.75c0.29-2.16,0.43-4.63,0.43-7.42V46.51
				c0-2.78-0.14-5.25-0.43-7.42c-0.17-1.25-0.75-2.73-1.22-3.75c-0.26-0.58,0.16-1.23,0.8-1.23H276.35z"/>
		</g>
		<g>
			<g>
				<g>
					<path class="st0" d="M314.98,75.16h-11.24c-0.78,0-1.49-0.39-1.91-1.05c-0.42-0.66-0.47-1.47-0.14-2.17
						c0.56-1.2,0.92-2.27,1.01-3.03c0.24-1.94,0.36-4.19,0.36-6.69V45.79c-0.6,0.01-1.18,0.02-1.75,0.04
						c-0.95,0.03-1.86,0.13-2.7,0.27c-0.81,0.14-1.59,0.37-2.34,0.67c-0.12,0.05-0.43,0.19-1.04,0.52c-0.77,0.41-1.69,0.36-2.4-0.15
						c-0.71-0.51-1.06-1.36-0.92-2.22l1.51-8.94c0.1-0.6,0.43-1.13,0.94-1.48c0.5-0.35,1.11-0.48,1.71-0.37
						c0.41,0.08,0.89,0.16,1.25,0.21c0.73,0.1,1.57,0.18,2.51,0.23c0.95,0.05,1.99,0.08,3.09,0.08h12.84c1.1,0,2.14-0.03,3.09-0.08
						c0.94-0.05,1.79-0.13,2.54-0.23c0.37-0.05,0.86-0.14,1.28-0.21c0.6-0.11,1.21,0.02,1.71,0.37c0.5,0.35,0.83,0.88,0.93,1.48
						l1.51,8.94c0.15,0.86-0.21,1.71-0.92,2.22c-0.71,0.51-1.63,0.56-2.4,0.15c-0.62-0.33-0.92-0.47-1.04-0.52
						c-0.74-0.3-1.54-0.52-2.36-0.67c-0.86-0.15-1.78-0.24-2.73-0.27c-0.56-0.02-1.14-0.03-1.74-0.04v16.42
						c0,2.5,0.13,4.75,0.39,6.68c0.1,0.77,0.46,1.86,1.01,3.07c0.32,0.7,0.26,1.51-0.16,2.16
						C316.47,74.77,315.75,75.16,314.98,75.16z M304.73,72.25H314c-0.45-1.12-0.74-2.12-0.85-2.97c-0.28-2.06-0.42-4.44-0.42-7.07
						V45.44c0-0.69,0.27-1.34,0.76-1.82c0.48-0.48,1.12-0.74,1.79-0.74c0.01,0,0.02,0,0.03,0c0.75,0.01,1.48,0.03,2.17,0.05
						c1.08,0.04,2.13,0.14,3.12,0.32c1.03,0.18,2.02,0.46,2.96,0.84c0.06,0.02,0.12,0.05,0.18,0.08l-1.19-7.05
						c-0.27,0.05-0.54,0.09-0.76,0.12c-0.83,0.11-1.76,0.2-2.78,0.25c-1,0.06-2.1,0.08-3.25,0.08h-12.84
						c-1.15,0-2.25-0.03-3.25-0.08c-1.02-0.05-1.94-0.14-2.75-0.25c-0.21-0.03-0.47-0.07-0.73-0.12l-1.19,7.05
						c0.06-0.03,0.12-0.05,0.18-0.08c0.93-0.38,1.92-0.66,2.92-0.84c0.98-0.17,2.02-0.28,3.1-0.32c0.7-0.02,1.42-0.04,2.17-0.05
						c0.01,0,0.02,0,0.03,0c0.67,0,1.31,0.26,1.79,0.74c0.49,0.48,0.76,1.13,0.76,1.82v16.78c0,2.62-0.13,5-0.39,7.06l0,0
						C305.46,70.26,305.1,71.34,304.73,72.25z"/>
				</g>
			</g>
			<g>
				<g>
					<path class="st0" d="M359.25,75.75c-1.35,0-2.59-0.12-3.71-0.35c-1.17-0.25-2.28-0.67-3.3-1.27c-1.02-0.59-1.98-1.38-2.87-2.34
						c-0.85-0.93-1.7-2.08-2.53-3.45l-2.37-3.75c-0.54,0.04-1.07,0.07-1.59,0.09l-0.99,0.05c0.06,1.68,0.2,3.22,0.4,4.57
						c0.1,0.65,0.42,1.58,0.92,2.62c0.33,0.7,0.28,1.52-0.13,2.18c-0.42,0.66-1.14,1.06-1.92,1.06h-11.22
						c-0.78,0-1.49-0.39-1.91-1.04c-0.42-0.65-0.48-1.46-0.16-2.16c0.55-1.21,0.91-2.29,1.01-3.06c0.26-1.93,0.39-4.18,0.39-6.68
						V47.6c0-2.5-0.13-4.75-0.39-6.68c-0.1-0.77-0.46-1.86-1.01-3.07c-0.32-0.71-0.26-1.51,0.16-2.16c0.42-0.65,1.13-1.04,1.91-1.04
						h15.08c3.2,0,6.02,0.34,8.38,1.02c2.42,0.7,4.44,1.69,6.01,2.95c1.61,1.29,2.83,2.86,3.6,4.67c0.76,1.77,1.14,3.71,1.14,5.76
						c0,3.3-0.73,6.01-2.17,8.08c-1.11,1.59-2.49,2.91-4.13,3.94c0.69,1.1,1.4,2.2,2.11,3.26c0.74,1.12,1.48,2.15,2.21,3.07
						c0.69,0.87,1.39,1.61,2.06,2.19c0.21,0.18,0.57,0.43,1.02,0.71c0.68,0.42,1.08,1.15,1.08,1.94c0,0.78-0.39,1.49-1.06,1.9
						c-0.67,0.41-1.4,0.75-2.19,1C361.83,75.55,360.54,75.75,359.25,75.75z M344.65,61.67c0.88,0,1.69,0.44,2.16,1.19l2.49,3.95
						c0.75,1.22,1.48,2.23,2.21,3.02c0.68,0.75,1.42,1.35,2.18,1.79c0.76,0.44,1.58,0.75,2.44,0.94c0.92,0.19,1.97,0.29,3.11,0.29
						c0.99,0,1.98-0.16,2.94-0.47c0.2-0.07,0.4-0.14,0.59-0.22c-0.17-0.12-0.32-0.24-0.45-0.35c-0.82-0.7-1.64-1.57-2.45-2.59
						c-0.78-0.98-1.57-2.08-2.36-3.27c-0.78-1.18-1.58-2.41-2.35-3.65l-1.43-2.34l1.43-0.7c1.81-0.89,3.29-2.16,4.42-3.77
						c1.09-1.57,1.65-3.73,1.65-6.42c0-1.65-0.3-3.21-0.9-4.61c-0.58-1.36-1.5-2.55-2.74-3.54c-1.27-1.02-2.96-1.83-5-2.42
						c-2.1-0.6-4.65-0.91-7.57-0.91h-14.1c0.37,0.91,0.72,1.99,0.86,2.97c0.28,2.06,0.42,4.44,0.42,7.07v14.61
						c0,2.63-0.14,5.01-0.42,7.07c-0.11,0.85-0.4,1.85-0.85,2.97h9.26c-0.39-0.95-0.65-1.8-0.76-2.52
						c-0.23-1.56-0.38-3.33-0.45-5.26c-0.05-1.39,1.05-2.57,2.45-2.63l1.33-0.06c0.56-0.03,1.13-0.06,1.71-0.1
						C344.52,61.67,344.59,61.67,344.65,61.67z M341.49,57.72c-0.65,0-1.28-0.25-1.75-0.7c-0.51-0.48-0.8-1.16-0.8-1.87v-9.99
						c0-1.41,1.15-2.56,2.56-2.56h2.71c2.99,0,5.28,0.52,7,1.59c1.89,1.18,2.89,3,2.89,5.29c0,1.74-0.47,3.19-1.41,4.31
						c-0.86,1.03-1.99,1.86-3.36,2.45c-1.28,0.55-2.74,0.94-4.33,1.15c-1.12,0.15-2.25,0.26-3.37,0.32
						C341.58,57.72,341.54,57.72,341.49,57.72z M341.85,45.51v9.27c0.91-0.06,1.84-0.15,2.76-0.27c1.33-0.18,2.53-0.5,3.57-0.94
						c0.95-0.41,1.71-0.96,2.28-1.64c0.5-0.6,0.74-1.4,0.74-2.45c0-1.28-0.48-2.18-1.52-2.82c-1.23-0.76-3.07-1.15-5.46-1.15H341.85
						z"/>
				</g>
			</g>
			<g>
				<g>
					<path class="st0" d="M380.4,75.16h-11.26c-0.78,0-1.49-0.39-1.91-1.04c-0.42-0.65-0.48-1.46-0.16-2.16
						c0.55-1.21,0.91-2.29,1.01-3.06c0.26-1.93,0.39-4.18,0.39-6.68V47.6c0-2.5-0.13-4.75-0.39-6.68c-0.1-0.77-0.46-1.86-1.01-3.07
						c-0.32-0.71-0.26-1.51,0.16-2.16c0.42-0.65,1.13-1.04,1.91-1.04h11.26c0.77,0,1.49,0.39,1.91,1.04
						c0.42,0.65,0.48,1.46,0.16,2.16c-0.55,1.21-0.91,2.3-1.01,3.07c-0.26,1.93-0.39,4.18-0.39,6.68v14.61
						c0,2.5,0.13,4.75,0.39,6.68c0.1,0.77,0.46,1.86,1.01,3.07c0.32,0.7,0.26,1.51-0.16,2.16C381.89,74.77,381.18,75.16,380.4,75.16
						z M370.13,72.25h9.3c-0.45-1.12-0.74-2.12-0.85-2.97c-0.28-2.06-0.42-4.44-0.42-7.07V47.6c0-2.63,0.14-5.01,0.42-7.07
						c0.13-0.98,0.49-2.06,0.86-2.97h-9.3c0.37,0.91,0.72,1.99,0.86,2.97c0.28,2.06,0.42,4.44,0.42,7.07v14.61
						c0,2.63-0.14,5.01-0.42,7.07C370.87,70.13,370.58,71.13,370.13,72.25z"/>
				</g>
			</g>
			<g>
				<g>
					<path class="st0" d="M397.99,75.16h-11.22c-0.78,0-1.49-0.39-1.91-1.04c-0.42-0.65-0.48-1.46-0.16-2.16
						c0.55-1.21,0.91-2.29,1.01-3.06c0.26-1.93,0.39-4.18,0.39-6.68V47.6c0-2.5-0.13-4.75-0.39-6.68c-0.1-0.77-0.46-1.86-1.01-3.07
						c-0.32-0.7-0.26-1.51,0.16-2.16c0.42-0.65,1.13-1.04,1.91-1.04h13.2c3.2,0,6.02,0.34,8.38,1.02c2.42,0.7,4.44,1.69,6.01,2.95
						c1.61,1.29,2.82,2.86,3.6,4.67c0.76,1.77,1.14,3.71,1.14,5.76c0,3.18-0.69,5.83-2.04,7.87c-1.33,2.01-3.09,3.6-5.23,4.73
						c-2.07,1.09-4.42,1.86-6.99,2.3c-2.01,0.34-4.07,0.58-6.11,0.72c0.06,1.72,0.2,3.28,0.4,4.64c0.1,0.65,0.42,1.58,0.92,2.62
						c0.33,0.7,0.28,1.52-0.13,2.18C399.49,74.77,398.77,75.16,397.99,75.16z M387.74,72.25H397c-0.39-0.95-0.65-1.8-0.76-2.52
						c-0.24-1.57-0.39-3.36-0.45-5.33c-0.04-1.39,1.01-2.54,2.41-2.62c2.05-0.13,4.11-0.36,6.14-0.71c2.27-0.38,4.33-1.06,6.12-2
						c1.71-0.9,3.11-2.17,4.17-3.76c1.03-1.56,1.56-3.66,1.56-6.26c0-1.65-0.3-3.21-0.9-4.61c-0.58-1.36-1.5-2.55-2.74-3.54
						c-1.27-1.02-2.96-1.84-5-2.42c-2.1-0.6-4.65-0.91-7.57-0.91h-12.22c0.37,0.91,0.72,1.99,0.86,2.97
						c0.28,2.06,0.42,4.44,0.42,7.07v14.61c0,2.63-0.14,5.01-0.42,7.07C388.48,70.13,388.2,71.13,387.74,72.25z M398.32,57.54
						c-0.62,0-1.22-0.23-1.69-0.65c-0.54-0.49-0.86-1.19-0.86-1.91v-9.82c0-1.41,1.15-2.56,2.56-2.56h0.83c2.99,0,5.28,0.52,7,1.59
						c1.89,1.18,2.89,3,2.89,5.29c0,1.55-0.38,2.88-1.12,3.95c-0.71,1.02-1.66,1.84-2.83,2.45c-1.09,0.56-2.34,0.98-3.73,1.24
						c-0.89,0.17-1.82,0.3-2.76,0.41C398.51,57.54,398.41,57.54,398.32,57.54z M398.68,45.51v9.07c0.73-0.09,1.45-0.2,2.15-0.33
						c1.11-0.21,2.09-0.53,2.93-0.96c0.76-0.4,1.35-0.89,1.78-1.53c0.4-0.57,0.6-1.34,0.6-2.28c0-1.28-0.48-2.18-1.52-2.82
						c-1.23-0.76-3.07-1.15-5.46-1.15H398.68z"/>
				</g>
			</g>
			<g>
				<g>
					<path class="st0" d="M437.51,75.75c-1.75,0-3.31-0.11-4.63-0.31c-1.3-0.2-2.47-0.44-3.47-0.7c-0.97-0.25-1.82-0.48-2.55-0.68
						c-0.59-0.16-1.11-0.24-1.55-0.24c-0.28,0-0.59,0.05-0.92,0.15c-0.07,0.02-0.17,0.06-0.28,0.11c-0.66,0.27-1.4,0.21-2.02-0.16
						c-0.62-0.37-1.01-0.99-1.09-1.7l-1.12-10.57c-0.1-0.92,0.37-1.8,1.18-2.23c0.81-0.44,1.8-0.34,2.51,0.24
						c0.58,0.48,1.06,0.85,1.42,1.1l0,0c1.07,0.76,2.31,1.44,3.7,2.02c1.4,0.59,2.92,1.07,4.53,1.42c1.59,0.35,3.21,0.53,4.82,0.53
						c1.03,0,1.87-0.15,2.49-0.45c0.28-0.14,0.41-0.26,0.41-0.67v-0.27c0-0.19-0.04-0.39-0.33-0.65c-0.43-0.38-1.06-0.73-1.88-1.07
						c-0.91-0.37-1.98-0.73-3.2-1.07c-1.28-0.36-2.64-0.76-4.08-1.19c-1.5-0.45-2.91-0.99-4.21-1.61c-1.37-0.65-2.58-1.47-3.59-2.43
						c-1.05-0.99-1.89-2.18-2.51-3.55c-0.62-1.38-0.93-3.02-0.93-4.86v-0.54c0-2.64,0.56-4.83,1.67-6.5
						c1.08-1.64,2.5-2.91,4.21-3.77c1.62-0.82,3.42-1.37,5.34-1.65c1.83-0.26,3.65-0.39,5.39-0.39c0.9,0,1.83,0.05,2.78,0.14
						c0.9,0.09,1.76,0.18,2.57,0.27c0.82,0.09,1.57,0.18,2.26,0.27c0.62,0.08,1.13,0.12,1.53,0.12c0.5,0,1-0.02,1.48-0.05
						c0.01,0,0.14-0.01,0.5-0.1c0.64-0.15,1.31-0.02,1.84,0.37c0.54,0.39,0.88,0.99,0.93,1.65c0.15,1.78,0.3,3.55,0.45,5.31
						l0.38,4.46c0.08,0.9-0.36,1.73-1.15,2.17c-0.78,0.44-1.72,0.39-2.44-0.14c-0.46-0.33-0.85-0.59-1.13-0.76
						c-0.95-0.56-2.01-1.04-3.13-1.44c-1.14-0.4-2.34-0.72-3.56-0.93c-2.76-0.49-5.09-0.41-6.52,0.12c-0.5,0.18-0.5,0.33-0.5,0.46
						c0,0.26,0.07,0.33,0.11,0.37c0.23,0.23,0.57,0.45,1,0.64c0.52,0.24,1.16,0.47,1.9,0.68c0.8,0.23,1.65,0.47,2.54,0.72
						c1.6,0.47,3.23,0.97,4.9,1.49c1.79,0.56,3.44,1.33,4.93,2.29c1.55,1.01,2.84,2.34,3.83,3.95c1.02,1.66,1.53,3.79,1.53,6.35
						v0.54c0,2.48-0.5,4.58-1.49,6.25c-0.98,1.65-2.28,2.98-3.87,3.96c-1.54,0.95-3.31,1.62-5.24,1.99
						C441.38,75.57,439.46,75.75,437.51,75.75z M425.32,70.91c0.7,0,1.48,0.12,2.32,0.35c0.71,0.2,1.55,0.42,2.51,0.67
						c0.91,0.24,1.99,0.45,3.19,0.64c1.17,0.18,2.58,0.28,4.18,0.28c1.76,0,3.5-0.16,5.18-0.48c1.59-0.3,3.02-0.85,4.27-1.61
						c1.2-0.74,2.15-1.71,2.89-2.97c0.72-1.22,1.09-2.82,1.09-4.76v-0.54c0-2.01-0.37-3.63-1.1-4.83c-0.76-1.24-1.75-2.26-2.94-3.03
						c-1.26-0.82-2.68-1.48-4.21-1.95c-1.66-0.52-3.27-1.01-4.84-1.47c-0.88-0.24-1.73-0.49-2.54-0.72
						c-0.87-0.25-1.64-0.53-2.29-0.82c-0.75-0.34-1.37-0.76-1.85-1.24c-0.63-0.63-0.96-1.47-0.96-2.42c0-0.86,0.31-2.42,2.4-3.19
						c1.14-0.42,2.5-0.63,4.16-0.63c1.19,0,2.49,0.12,3.88,0.37c1.38,0.25,2.73,0.6,4.02,1.05c1.3,0.46,2.52,1.02,3.64,1.67
						c0.07,0.04,0.15,0.09,0.23,0.14l-0.27-3.11c-0.13-1.52-0.26-3.06-0.4-4.61c-0.08,0.01-0.16,0.02-0.23,0.02
						c-0.55,0.04-1.12,0.06-1.68,0.06c-0.53,0-1.16-0.05-1.91-0.15c-0.67-0.09-1.4-0.18-2.2-0.26c-0.8-0.09-1.65-0.18-2.54-0.27
						c-0.85-0.08-1.68-0.13-2.49-0.13c-1.61,0-3.28,0.12-4.98,0.36c-1.61,0.23-3.1,0.69-4.43,1.36c-1.27,0.64-2.28,1.55-3.1,2.78
						c-0.78,1.18-1.18,2.83-1.18,4.89v0.54c0,1.43,0.23,2.67,0.68,3.68c0.46,1.02,1.08,1.9,1.84,2.62c0.8,0.75,1.76,1.4,2.85,1.92
						c1.16,0.56,2.44,1.04,3.79,1.45c1.42,0.43,2.77,0.82,4.03,1.17c1.32,0.37,2.5,0.77,3.51,1.18c1.13,0.46,2.01,0.97,2.69,1.57
						c0.87,0.76,1.33,1.74,1.33,2.84v0.27c0,1.49-0.73,2.66-2.06,3.3c-1.02,0.49-2.28,0.73-3.74,0.73c-1.82,0-3.65-0.2-5.44-0.6
						c-1.78-0.39-3.47-0.93-5.03-1.58c-1.58-0.66-3.01-1.45-4.25-2.33c-0.11-0.08-0.24-0.17-0.37-0.27l0.87,8.25
						C424.34,70.98,424.84,70.91,425.32,70.91z M423.03,71.38C423.03,71.38,423.03,71.38,423.03,71.38
						C423.03,71.38,423.03,71.38,423.03,71.38z"/>
				</g>
			</g>
		</g>
	</g>
</g>
</svg>
