<?xml version="1.0" encoding="utf-8"?>
<!-- Generator: Adobe Illustrator 25.2.1, SVG Export Plug-In . SVG Version: 6.00 Build 0)  -->
<svg version="1.1" id="Capa_1" xmlns="http://www.w3.org/2000/svg" xmlns:xlink="http://www.w3.org/1999/xlink" x="0px" y="0px"
	 viewBox="0 0 171.63 35.59" style="enable-background:new 0 0 171.63 35.59;" xml:space="preserve">
<style type="text/css">
	.st0{fill:#FFFFFF;}
</style>
<g>
	<g>
		<g>
			<g>
				<g>
					<path class="st0" d="M25.24,10.88C24.36,4.7,19.02-0.04,12.61,0C5.6,0.04-0.04,5.75,0,12.76c0.03,5.74,8.63,18.03,11.73,22.28
						c0.54,0.74,1.65,0.73,2.18-0.01c1.67-2.35,4.98-7.15,7.61-11.95l0,0c0,0,0-0.01,0-0.01c0.01-0.02,0.02-0.04,0.03-0.06
						c0,0,0,0,0,0c0.22-0.4,0.44-0.82,0.66-1.23c0.12-0.23,0-0.5-0.24-0.58c-0.46-0.15-1.16-0.36-1.52-0.47
						c-2.17-0.66-4.32-1.41-6.43-2.27c-1.54-0.63-2.99-1.45-4.12-2.72c-1.36-1.53-1.52-3.74-0.3-5.05c1.22-1.31,2.74-1.26,4.33-0.85
						c2.24,0.59,4.27,1.37,6.59,1.9c0.62,0.14,2.81,0.69,4.05,1c0.43,0.11,0.84-0.24,0.8-0.68C25.3,11.5,25.24,10.89,25.24,10.88z
						 M14.1,8.3C11.87,7.71,9.73,7.65,8.02,9.5c-1.72,1.84-1.49,4.95,0.42,7.1c1.59,1.79,3.63,2.94,5.8,3.83
						c1.57,0.64,3.16,1.24,4.76,1.8c0.27,0.09,0.39,0.41,0.25,0.66c-1.87,3.25-3.98,6.34-5.26,8.15c-0.58,0.82-1.8,0.83-2.39,0.01
						c-2.78-3.84-9.4-13.48-9.43-18.07C2.13,7.18,6.81,2.44,12.62,2.41c4.56-0.03,8.45,2.85,9.94,6.89c0.21,0.57-0.3,1.15-0.89,1.01
						C19.13,9.71,16.62,8.97,14.1,8.3z"/>
					<g id="XMLID_14_">
						<g>
							<path class="st0" d="M15.42,13.37c0.01,1.44-1.2,2.61-2.7,2.61c-1.47-0.01-2.65-1.22-2.61-2.69
								c0.04-1.36,1.28-2.61,2.62-2.61C14.11,10.67,15.4,11.96,15.42,13.37z M12.76,14.73c0.8,0,1.44-0.62,1.43-1.38
								c-0.01-0.75-0.69-1.44-1.43-1.43c-0.71,0-1.37,0.67-1.39,1.39C11.35,14.09,11.98,14.73,12.76,14.73z"/>
						</g>
					</g>
					<path class="st0" d="M23.03,13.24c-0.18,0-0.32,0.14-0.34,0.31c-0.06,0.71-0.29,2.52-1.13,3.94c-0.5,0.84-0.76,1.33-0.89,1.61
						c-0.09,0.19,0.01,0.41,0.21,0.47l0.19,0.06c0.14,0.04,0.3-0.01,0.38-0.14c0.37-0.55,1.24-2.1,1.57-3.31
						c0.35-1.26,0.47-1.65,0.35-2.57C23.34,13.41,23.23,13.24,23.03,13.24L23.03,13.24z"/>
					<path class="st0" d="M21.02,12.92c0.3,0.06,0.5,0.35,0.46,0.65c-0.09,0.74-0.32,2.11-0.82,3.2c-0.41,0.9-0.78,1.58-1.02,2
						c-0.16,0.28-0.51,0.37-0.79,0.22l-0.4-0.22c-0.31-0.17-0.4-0.58-0.19-0.87c0.41-0.56,1.03-1.54,1.42-2.86
						c0.26-0.87,0.41-1.4,0.5-1.74c0.08-0.3,0.39-0.49,0.69-0.42L21.02,12.92z"/>
				</g>
			</g>
		</g>
	</g>
	<g>
		<g>
			<path class="st0" d="M45.96,20.03c0.13,0.43,0.74,0.43,0.86,0l1.08-3.69c0.07-0.28,0.15-0.57,0.22-0.88
				c0.07-0.31,0.12-0.61,0.14-0.92c0.02-0.31,0.01-0.59-0.03-0.85c-0.02-0.09-0.06-0.22-0.1-0.34c-0.08-0.22,0.08-0.44,0.31-0.44
				h4.59c0.27,0,0.43,0.3,0.27,0.52c-0.25,0.36-0.57,0.84-0.75,1.22c-0.33,0.71-0.62,1.49-0.87,2.35l-3.23,10.92
				c-0.06,0.19-0.23,0.32-0.43,0.32h-3.12c-0.2,0-0.38-0.13-0.43-0.32l-2.06-6.93c-0.13-0.43-0.74-0.43-0.86,0l-2.04,6.93
				c-0.06,0.19-0.23,0.32-0.43,0.32h-3.12c-0.2,0-0.38-0.13-0.43-0.32L32.31,17c-0.25-0.86-0.54-1.65-0.87-2.35
				c-0.18-0.38-0.49-0.86-0.75-1.22c-0.15-0.22,0-0.52,0.27-0.52h4.59c0.23,0,0.39,0.23,0.31,0.44c-0.05,0.12-0.09,0.25-0.1,0.34
				c-0.04,0.26-0.05,0.55-0.03,0.85c0.02,0.31,0.07,0.61,0.14,0.92c0.07,0.31,0.15,0.6,0.22,0.88l1.08,3.68
				c0.13,0.43,0.74,0.43,0.86,0l0.9-3.05V17c0.07-0.26,0.16-0.58,0.26-0.94c0.1-0.36,0.18-0.73,0.24-1.11
				c0.06-0.37,0.07-0.73,0.04-1.07c-0.01-0.15-0.07-0.35-0.14-0.53c-0.08-0.22,0.08-0.45,0.31-0.45h4.67c0.23,0,0.39,0.23,0.31,0.44
				c-0.05,0.13-0.09,0.27-0.11,0.37c-0.04,0.28-0.05,0.57-0.02,0.88c0.03,0.31,0.08,0.62,0.15,0.94c0.07,0.32,0.15,0.62,0.22,0.9
				L45.96,20.03z"/>
			<path class="st0" d="M59.47,12.9c0.24,0,0.4,0.25,0.3,0.47c-0.18,0.39-0.4,0.94-0.46,1.42c-0.11,0.82-0.16,1.75-0.16,2.8v1.48
				c0,0.27,0.24,0.48,0.51,0.45l4.03-0.5c0.23-0.03,0.39-0.22,0.39-0.45v-0.98c0-1.05-0.05-1.99-0.16-2.8
				c-0.06-0.47-0.29-1.03-0.46-1.42c-0.1-0.22,0.06-0.47,0.3-0.47h4.59c0.24,0,0.4,0.25,0.3,0.47c-0.18,0.39-0.4,0.94-0.46,1.42
				c-0.11,0.82-0.16,1.75-0.16,2.8v5.96c0,1.05,0.05,1.99,0.16,2.8c0.06,0.47,0.29,1.03,0.46,1.42c0.1,0.22-0.06,0.47-0.3,0.47
				h-4.59c-0.24,0-0.4-0.25-0.3-0.47c0.18-0.38,0.4-0.94,0.46-1.42c0.11-0.82,0.16-1.75,0.16-2.8v-1.24c0-0.27-0.24-0.48-0.51-0.45
				l-4.03,0.5c-0.23,0.03-0.39,0.22-0.39,0.45v0.74c0,1.05,0.05,1.99,0.16,2.8c0.06,0.47,0.29,1.03,0.46,1.42
				c0.1,0.22-0.06,0.47-0.3,0.47h-4.59c-0.24,0-0.4-0.25-0.3-0.47c0.18-0.38,0.4-0.94,0.46-1.42c0.11-0.82,0.16-1.75,0.16-2.8v-5.96
				c0-1.05-0.05-1.99-0.16-2.8c-0.06-0.47-0.29-1.03-0.46-1.42c-0.1-0.22,0.06-0.47,0.3-0.47H59.47z"/>
			<path class="st0" d="M71.09,28.24c-0.24,0-0.4-0.25-0.3-0.47c0.18-0.38,0.4-0.94,0.46-1.42c0.11-0.82,0.16-1.75,0.16-2.8v-5.96
				c0-1.05-0.05-1.99-0.16-2.8c-0.06-0.47-0.29-1.03-0.46-1.42c-0.1-0.22,0.06-0.47,0.3-0.47h6.74c0.47,0,0.93,0,1.39,0
				c0.46,0,0.89-0.01,1.29-0.03c0.4-0.02,0.76-0.05,1.07-0.1c0.15-0.02,0.36-0.06,0.54-0.09c0.18-0.03,0.35,0.09,0.39,0.27
				l0.62,3.66c0.05,0.27-0.24,0.48-0.48,0.35c-0.19-0.1-0.38-0.2-0.51-0.25c-0.34-0.14-0.71-0.24-1.1-0.31
				c-0.39-0.07-0.79-0.11-1.22-0.12c-0.42-0.01-0.88-0.02-1.36-0.02h-2.66c-0.25,0-0.45,0.2-0.45,0.45v1.95
				c0,0.25,0.2,0.45,0.45,0.45h1.07c0.72,0,1.37-0.04,1.95-0.11c0.31-0.04,0.72-0.18,1.02-0.29c0.22-0.08,0.45,0.08,0.45,0.31v3.38
				c0,0.25-0.27,0.41-0.49,0.29c-0.22-0.12-0.45-0.25-0.6-0.31c-0.34-0.15-0.69-0.25-1.06-0.32c-0.37-0.07-0.77-0.11-1.18-0.12
				c-0.42-0.01,0.12-0.02-0.37-0.02h-0.78c-0.25,0-0.45,0.2-0.45,0.45v2.08c0,0.25,0.2,0.45,0.45,0.45h2.99c0.48,0,0.93,0,1.36-0.01
				c0.42-0.01,0.83-0.04,1.22-0.11c0.39-0.07,0.75-0.17,1.1-0.32c0.13-0.06,0.32-0.15,0.51-0.25c0.24-0.13,0.53,0.07,0.48,0.35
				l-0.62,3.65c-0.03,0.18-0.2,0.3-0.39,0.27c-0.17-0.03-0.38-0.07-0.54-0.09c-0.31-0.04-0.67-0.08-1.07-0.1
				c-0.4-0.02-0.83-0.03-1.29-0.03c-0.46,0-0.92,0-1.39,0H71.09z"/>
			<path class="st0" d="M85.48,28.24c-0.24,0-0.4-0.25-0.3-0.47c0.18-0.38,0.4-0.94,0.46-1.42c0.11-0.82,0.16-1.75,0.16-2.8v-5.96
				c0-1.05-0.05-1.99-0.16-2.8c-0.06-0.47-0.29-1.03-0.46-1.42c-0.1-0.22,0.06-0.47,0.3-0.47h6.74c0.47,0,0.93,0,1.39,0
				c0.46,0,0.89-0.01,1.29-0.03c0.4-0.02,0.76-0.05,1.07-0.1c0.15-0.02,0.36-0.06,0.54-0.09c0.18-0.03,0.35,0.09,0.39,0.27
				l0.62,3.66c0.05,0.27-0.24,0.48-0.48,0.35c-0.19-0.1-0.38-0.2-0.51-0.25c-0.34-0.14-0.71-0.24-1.1-0.31
				c-0.39-0.07-0.79-0.11-1.22-0.12c-0.42-0.01-0.88-0.02-1.36-0.02H90.2c-0.25,0-0.45,0.2-0.45,0.45v1.95
				c0,0.25,0.2,0.45,0.45,0.45h1.07c0.72,0,1.37-0.04,1.95-0.11c0.31-0.04,0.72-0.18,1.02-0.29c0.22-0.08,0.45,0.08,0.45,0.31v3.38
				c0,0.25-0.27,0.41-0.49,0.29c-0.22-0.12-0.45-0.25-0.6-0.31c-0.34-0.15-0.69-0.25-1.06-0.32c-0.37-0.07-0.77-0.11-1.18-0.12
				c-0.42-0.01,0.12-0.02-0.37-0.02H90.2c-0.25,0-0.45,0.2-0.45,0.45v2.08c0,0.25,0.2,0.45,0.45,0.45h2.99c0.48,0,0.93,0,1.36-0.01
				c0.42-0.01,0.83-0.04,1.22-0.11c0.39-0.07,0.75-0.17,1.1-0.32c0.13-0.06,0.32-0.15,0.51-0.25c0.24-0.13,0.53,0.07,0.48,0.35
				l-0.62,3.65c-0.03,0.18-0.2,0.3-0.39,0.27c-0.17-0.03-0.38-0.07-0.54-0.09c-0.31-0.04-0.67-0.08-1.07-0.1
				c-0.4-0.02-0.83-0.03-1.29-0.03c-0.46,0-0.92,0-1.39,0H85.48z"/>
			<path class="st0" d="M104.51,12.9c0.24,0,0.4,0.25,0.3,0.47c-0.18,0.39-0.4,0.94-0.46,1.42c-0.11,0.82-0.16,1.75-0.16,2.8v6.84
				c0,0.25,0.2,0.45,0.45,0.45h2.27c0.48,0,0.94,0,1.37-0.01c0.43-0.01,0.84-0.04,1.23-0.11c0.39-0.07,0.75-0.17,1.1-0.32
				c0.13-0.06,0.32-0.15,0.5-0.25c0.24-0.13,0.53,0.08,0.48,0.35l-0.63,3.66c-0.03,0.18-0.2,0.3-0.38,0.27
				c-0.16-0.03-0.34-0.06-0.47-0.08c-0.28-0.04-0.59-0.08-0.94-0.1c-0.35-0.02-0.73-0.04-1.13-0.04c-0.4-0.01-0.81-0.01-1.24-0.01
				h-6.87c-0.24,0-0.4-0.25-0.3-0.47c0.18-0.38,0.4-0.94,0.46-1.42c0.11-0.82,0.16-1.75,0.16-2.8v-5.96c0-1.05-0.05-1.99-0.16-2.8
				c-0.06-0.47-0.29-1.03-0.46-1.42c-0.1-0.22,0.06-0.47,0.3-0.47H104.51z"/>
		</g>
		<g>
			<g>
				<g>
					<path class="st0" d="M119.11,28.42h-4.25c-0.29,0-0.57-0.15-0.72-0.4c-0.16-0.25-0.18-0.56-0.05-0.82
						c0.21-0.45,0.35-0.86,0.38-1.15c0.09-0.73,0.14-1.59,0.14-2.53v-6.21c-0.23,0-0.45,0.01-0.66,0.02
						c-0.36,0.01-0.7,0.05-1.02,0.1c-0.3,0.05-0.6,0.14-0.88,0.25c-0.05,0.02-0.16,0.07-0.39,0.2c-0.29,0.16-0.64,0.14-0.91-0.06
						c-0.27-0.19-0.4-0.51-0.35-0.84l0.57-3.38c0.04-0.23,0.16-0.43,0.35-0.56c0.19-0.13,0.42-0.18,0.65-0.14
						c0.15,0.03,0.34,0.06,0.47,0.08c0.28,0.04,0.6,0.07,0.95,0.09c0.36,0.02,0.75,0.03,1.17,0.03h4.85c0.42,0,0.81-0.01,1.17-0.03
						c0.35-0.02,0.68-0.05,0.96-0.09c0.14-0.02,0.33-0.05,0.48-0.08c0.23-0.04,0.46,0.01,0.65,0.14c0.19,0.13,0.31,0.33,0.35,0.56
						l0.57,3.38c0.06,0.33-0.08,0.65-0.35,0.84c-0.27,0.19-0.62,0.21-0.91,0.06c-0.23-0.13-0.35-0.18-0.39-0.2
						c-0.28-0.11-0.58-0.2-0.89-0.25c-0.33-0.06-0.67-0.09-1.03-0.1c-0.21-0.01-0.43-0.01-0.66-0.02v6.21c0,0.95,0.05,1.8,0.15,2.53
						c0.04,0.29,0.17,0.7,0.38,1.16c0.12,0.27,0.1,0.57-0.06,0.82C119.68,28.28,119.41,28.42,119.11,28.42z M115.24,27.32h3.51
						c-0.17-0.42-0.28-0.8-0.32-1.12c-0.1-0.78-0.16-1.68-0.16-2.67v-6.34c0-0.26,0.1-0.51,0.29-0.69c0.18-0.18,0.42-0.28,0.68-0.28
						c0,0,0.01,0,0.01,0c0.28,0,0.56,0.01,0.82,0.02c0.41,0.01,0.81,0.05,1.18,0.12c0.39,0.07,0.76,0.17,1.12,0.32
						c0.02,0.01,0.04,0.02,0.07,0.03l-0.45-2.67c-0.1,0.02-0.2,0.03-0.29,0.05c-0.31,0.04-0.67,0.07-1.05,0.1
						c-0.38,0.02-0.79,0.03-1.23,0.03h-4.85c-0.44,0-0.85-0.01-1.23-0.03c-0.38-0.02-0.73-0.05-1.04-0.1
						c-0.08-0.01-0.18-0.03-0.28-0.04l-0.45,2.66c0.02-0.01,0.05-0.02,0.07-0.03c0.35-0.14,0.72-0.25,1.11-0.32
						c0.37-0.06,0.76-0.11,1.17-0.12c0.26-0.01,0.54-0.02,0.82-0.02c0,0,0.01,0,0.01,0c0.26,0,0.5,0.1,0.68,0.28
						c0.19,0.18,0.29,0.43,0.29,0.69v6.34c0,0.99-0.05,1.89-0.15,2.67l0,0C115.51,26.57,115.38,26.98,115.24,27.32z"/>
				</g>
			</g>
			<g>
				<g>
					<path class="st0" d="M135.86,28.65c-0.51,0-0.98-0.04-1.4-0.13c-0.44-0.09-0.86-0.25-1.25-0.48c-0.39-0.22-0.75-0.52-1.08-0.89
						c-0.32-0.35-0.64-0.79-0.96-1.3l-0.89-1.42c-0.2,0.01-0.4,0.03-0.6,0.04l-0.37,0.02c0.02,0.64,0.08,1.22,0.15,1.73
						c0.04,0.24,0.16,0.6,0.35,0.99c0.13,0.27,0.11,0.57-0.05,0.82c-0.16,0.25-0.43,0.4-0.73,0.4h-4.24c-0.29,0-0.56-0.15-0.72-0.39
						c-0.16-0.25-0.18-0.55-0.06-0.82c0.21-0.46,0.34-0.87,0.38-1.16c0.1-0.73,0.15-1.58,0.15-2.53V18c0-0.95-0.05-1.8-0.15-2.53
						c-0.04-0.29-0.17-0.7-0.38-1.16c-0.12-0.27-0.1-0.57,0.06-0.82c0.16-0.25,0.43-0.39,0.72-0.39h5.7c1.21,0,2.28,0.13,3.17,0.39
						c0.91,0.26,1.68,0.64,2.27,1.12c0.61,0.49,1.07,1.08,1.36,1.77c0.29,0.67,0.43,1.4,0.43,2.18c0,1.25-0.28,2.27-0.82,3.06
						c-0.42,0.6-0.94,1.1-1.56,1.49c0.26,0.42,0.53,0.83,0.8,1.23c0.28,0.42,0.56,0.81,0.84,1.16c0.26,0.33,0.52,0.61,0.78,0.83
						c0.08,0.07,0.22,0.16,0.38,0.27c0.26,0.16,0.41,0.43,0.41,0.74c0,0.3-0.15,0.56-0.4,0.72c-0.25,0.16-0.53,0.28-0.83,0.38
						C136.83,28.57,136.34,28.65,135.86,28.65z M130.34,23.32c0.33,0,0.64,0.17,0.82,0.45l0.94,1.49c0.28,0.46,0.56,0.84,0.83,1.14
						c0.26,0.28,0.54,0.51,0.82,0.68c0.29,0.17,0.6,0.29,0.92,0.35c0.35,0.07,0.74,0.11,1.18,0.11c0.37,0,0.75-0.06,1.11-0.18
						c0.08-0.02,0.15-0.05,0.22-0.08c-0.06-0.05-0.12-0.09-0.17-0.13c-0.31-0.27-0.62-0.6-0.93-0.98c-0.29-0.37-0.59-0.79-0.89-1.24
						c-0.3-0.45-0.6-0.91-0.89-1.38l-0.54-0.89l0.54-0.27c0.68-0.34,1.25-0.82,1.67-1.43c0.41-0.59,0.62-1.41,0.62-2.43
						c0-0.63-0.12-1.21-0.34-1.74c-0.22-0.51-0.57-0.97-1.04-1.34c-0.48-0.39-1.12-0.69-1.89-0.92c-0.79-0.23-1.76-0.34-2.86-0.34
						h-5.33c0.14,0.34,0.27,0.75,0.32,1.12c0.1,0.78,0.16,1.68,0.16,2.67v5.53c0,0.99-0.05,1.89-0.16,2.67
						c-0.04,0.32-0.15,0.7-0.32,1.12h3.5c-0.15-0.36-0.25-0.68-0.29-0.95c-0.09-0.59-0.15-1.26-0.17-1.99
						c-0.02-0.53,0.4-0.97,0.93-1l0.5-0.02c0.21-0.01,0.43-0.02,0.65-0.04C130.29,23.32,130.31,23.32,130.34,23.32z M129.14,21.83
						c-0.24,0-0.48-0.09-0.66-0.26c-0.19-0.18-0.3-0.44-0.3-0.71v-3.78c0-0.53,0.43-0.97,0.97-0.97h1.02c1.13,0,2,0.2,2.65,0.6
						c0.71,0.44,1.09,1.14,1.09,2c0,0.66-0.18,1.21-0.53,1.63c-0.33,0.39-0.75,0.7-1.27,0.93c-0.48,0.21-1.04,0.36-1.64,0.44
						c-0.42,0.06-0.85,0.1-1.27,0.12C129.17,21.83,129.16,21.83,129.14,21.83z M129.28,17.21v3.51c0.35-0.02,0.7-0.06,1.04-0.1
						c0.5-0.07,0.96-0.19,1.35-0.36c0.36-0.15,0.65-0.36,0.86-0.62c0.19-0.23,0.28-0.53,0.28-0.93c0-0.48-0.18-0.82-0.57-1.07
						c-0.46-0.29-1.16-0.44-2.07-0.44H129.28z"/>
				</g>
			</g>
			<g>
				<g>
					<path class="st0" d="M143.85,28.42h-4.26c-0.29,0-0.56-0.15-0.72-0.39c-0.16-0.25-0.18-0.55-0.06-0.82
						c0.21-0.46,0.34-0.87,0.38-1.16c0.1-0.73,0.15-1.58,0.15-2.53V18c0-0.95-0.05-1.8-0.15-2.53c-0.04-0.29-0.17-0.7-0.38-1.16
						c-0.12-0.27-0.1-0.57,0.06-0.82c0.16-0.25,0.43-0.39,0.72-0.39h4.26c0.29,0,0.56,0.15,0.72,0.39c0.16,0.25,0.18,0.55,0.06,0.82
						c-0.21,0.46-0.34,0.87-0.38,1.16c-0.1,0.73-0.15,1.58-0.15,2.53v5.53c0,0.95,0.05,1.8,0.15,2.53c0.04,0.29,0.17,0.7,0.38,1.16
						c0.12,0.27,0.1,0.57-0.06,0.82C144.42,28.28,144.15,28.42,143.85,28.42z M139.97,27.32h3.52c-0.17-0.42-0.28-0.8-0.32-1.12
						c-0.1-0.78-0.16-1.68-0.16-2.67V18c0-0.99,0.05-1.89,0.16-2.67c0.05-0.37,0.19-0.78,0.32-1.12h-3.52
						c0.14,0.34,0.27,0.75,0.32,1.12c0.1,0.78,0.16,1.68,0.16,2.67v5.53c0,0.99-0.05,1.89-0.16,2.67
						C140.25,26.52,140.14,26.9,139.97,27.32z"/>
				</g>
			</g>
			<g>
				<g>
					<path class="st0" d="M150.5,28.42h-4.24c-0.29,0-0.56-0.15-0.72-0.39c-0.16-0.25-0.18-0.55-0.06-0.82
						c0.21-0.46,0.34-0.87,0.38-1.16c0.1-0.73,0.15-1.58,0.15-2.53V18c0-0.95-0.05-1.8-0.15-2.53c-0.04-0.29-0.17-0.7-0.38-1.16
						c-0.12-0.27-0.1-0.57,0.06-0.82c0.16-0.25,0.43-0.39,0.72-0.39h4.99c1.21,0,2.28,0.13,3.17,0.39c0.91,0.26,1.68,0.64,2.27,1.12
						c0.61,0.49,1.07,1.08,1.36,1.77c0.29,0.67,0.43,1.4,0.43,2.18c0,1.2-0.26,2.2-0.77,2.98c-0.5,0.76-1.17,1.36-1.98,1.79
						c-0.78,0.41-1.67,0.7-2.64,0.87c-0.76,0.13-1.54,0.22-2.31,0.27c0.02,0.65,0.08,1.24,0.15,1.75c0.04,0.24,0.16,0.6,0.35,0.99
						c0.13,0.27,0.11,0.57-0.05,0.82C151.07,28.27,150.8,28.42,150.5,28.42z M146.63,27.32h3.5c-0.15-0.36-0.25-0.68-0.29-0.95
						c-0.09-0.59-0.15-1.27-0.17-2.02c-0.02-0.52,0.38-0.96,0.91-0.99c0.77-0.05,1.56-0.14,2.32-0.27c0.86-0.14,1.64-0.4,2.31-0.76
						c0.65-0.34,1.18-0.82,1.58-1.42c0.39-0.59,0.59-1.38,0.59-2.37c0-0.63-0.11-1.21-0.34-1.74c-0.22-0.51-0.57-0.97-1.04-1.34
						c-0.48-0.39-1.12-0.69-1.89-0.92c-0.79-0.23-1.76-0.34-2.86-0.34h-4.62c0.14,0.34,0.27,0.75,0.32,1.12
						c0.1,0.78,0.16,1.68,0.16,2.67v5.53c0,0.99-0.05,1.89-0.16,2.67C146.91,26.52,146.8,26.9,146.63,27.32z M150.63,21.76
						c-0.23,0-0.46-0.09-0.64-0.25c-0.21-0.18-0.32-0.45-0.32-0.72v-3.71c0-0.53,0.43-0.97,0.97-0.97h0.31c1.13,0,2,0.2,2.65,0.6
						c0.71,0.44,1.09,1.14,1.09,2c0,0.59-0.14,1.09-0.42,1.49c-0.27,0.38-0.63,0.7-1.07,0.93c-0.41,0.21-0.89,0.37-1.41,0.47
						c-0.34,0.06-0.69,0.11-1.04,0.15C150.7,21.76,150.67,21.76,150.63,21.76z M150.77,17.21v3.43c0.28-0.03,0.55-0.08,0.81-0.13
						c0.42-0.08,0.79-0.2,1.11-0.36c0.29-0.15,0.51-0.34,0.67-0.58c0.15-0.22,0.23-0.51,0.23-0.86c0-0.48-0.18-0.82-0.57-1.07
						c-0.46-0.29-1.16-0.44-2.07-0.44H150.77z"/>
				</g>
			</g>
			<g>
				<g>
					<path class="st0" d="M165.45,28.65c-0.66,0-1.25-0.04-1.75-0.12c-0.49-0.08-0.93-0.17-1.31-0.26c-0.37-0.1-0.69-0.18-0.96-0.26
						c-0.22-0.06-0.42-0.09-0.59-0.09c-0.11,0-0.22,0.02-0.35,0.06c-0.03,0.01-0.07,0.02-0.11,0.04c-0.25,0.1-0.53,0.08-0.76-0.06
						c-0.23-0.14-0.38-0.37-0.41-0.64l-0.42-4c-0.04-0.35,0.14-0.68,0.45-0.84c0.31-0.17,0.68-0.13,0.95,0.09
						c0.22,0.18,0.4,0.32,0.54,0.42l0,0c0.4,0.29,0.88,0.54,1.4,0.76c0.53,0.22,1.1,0.4,1.71,0.54c0.6,0.13,1.21,0.2,1.82,0.2
						c0.39,0,0.71-0.06,0.94-0.17c0.11-0.05,0.15-0.1,0.15-0.26v-0.1c0-0.07-0.02-0.15-0.13-0.25c-0.16-0.14-0.4-0.28-0.71-0.4
						c-0.34-0.14-0.75-0.28-1.21-0.41c-0.48-0.14-1-0.29-1.54-0.45c-0.57-0.17-1.1-0.37-1.59-0.61c-0.52-0.25-0.97-0.56-1.36-0.92
						c-0.4-0.37-0.72-0.83-0.95-1.34c-0.23-0.52-0.35-1.14-0.35-1.84v-0.2c0-1,0.21-1.83,0.63-2.46c0.41-0.62,0.95-1.1,1.59-1.43
						c0.61-0.31,1.29-0.52,2.02-0.62c0.69-0.1,1.38-0.15,2.04-0.15c0.34,0,0.69,0.02,1.05,0.05c0.34,0.03,0.66,0.07,0.97,0.1
						c0.31,0.03,0.59,0.07,0.85,0.1c0.23,0.03,0.43,0.05,0.58,0.05c0.19,0,0.38-0.01,0.56-0.02c0,0,0.05,0,0.19-0.04
						c0.24-0.06,0.5-0.01,0.7,0.14c0.2,0.15,0.33,0.37,0.35,0.62c0.06,0.67,0.11,1.34,0.17,2.01l0.14,1.69
						c0.03,0.34-0.14,0.65-0.43,0.82c-0.3,0.17-0.65,0.15-0.92-0.05c-0.17-0.13-0.32-0.22-0.43-0.29c-0.36-0.21-0.76-0.39-1.18-0.54
						c-0.43-0.15-0.88-0.27-1.35-0.35c-1.04-0.19-1.92-0.15-2.46,0.05c-0.19,0.07-0.19,0.13-0.19,0.17c0,0.1,0.03,0.12,0.04,0.14
						c0.09,0.09,0.21,0.17,0.38,0.24c0.2,0.09,0.44,0.18,0.72,0.26c0.3,0.09,0.62,0.18,0.96,0.27c0.61,0.18,1.22,0.37,1.85,0.56
						c0.68,0.21,1.3,0.5,1.86,0.87c0.59,0.38,1.08,0.88,1.45,1.49c0.38,0.63,0.58,1.43,0.58,2.4v0.2c0,0.94-0.19,1.73-0.56,2.36
						c-0.37,0.62-0.86,1.13-1.46,1.5c-0.58,0.36-1.25,0.61-1.98,0.75C166.91,28.58,166.19,28.65,165.45,28.65z M160.84,26.82
						c0.26,0,0.56,0.04,0.88,0.13c0.27,0.07,0.59,0.16,0.95,0.25c0.35,0.09,0.75,0.17,1.21,0.24c0.44,0.07,0.98,0.11,1.58,0.11
						c0.67,0,1.32-0.06,1.96-0.18c0.6-0.12,1.14-0.32,1.61-0.61c0.46-0.28,0.81-0.65,1.09-1.12c0.27-0.46,0.41-1.07,0.41-1.8v-0.2
						c0-0.76-0.14-1.37-0.42-1.83c-0.29-0.47-0.66-0.85-1.11-1.15c-0.48-0.31-1.01-0.56-1.59-0.74c-0.63-0.19-1.24-0.38-1.83-0.56
						c-0.33-0.09-0.66-0.18-0.96-0.27c-0.33-0.09-0.62-0.2-0.87-0.31c-0.28-0.13-0.52-0.29-0.7-0.47c-0.24-0.24-0.36-0.55-0.36-0.92
						c0-0.33,0.12-0.91,0.91-1.21c0.43-0.16,0.95-0.24,1.57-0.24c0.45,0,0.94,0.05,1.47,0.14c0.52,0.09,1.03,0.23,1.52,0.4
						c0.49,0.17,0.95,0.39,1.37,0.63c0.03,0.02,0.06,0.03,0.09,0.05l-0.1-1.18c-0.05-0.58-0.1-1.16-0.15-1.74
						c-0.03,0-0.06,0.01-0.09,0.01c-0.21,0.01-0.42,0.02-0.64,0.02c-0.2,0-0.44-0.02-0.72-0.06c-0.25-0.03-0.53-0.07-0.83-0.1
						c-0.3-0.03-0.62-0.07-0.96-0.1c-0.32-0.03-0.64-0.05-0.94-0.05c-0.61,0-1.24,0.05-1.88,0.14c-0.61,0.09-1.17,0.26-1.68,0.51
						c-0.48,0.24-0.86,0.59-1.17,1.05c-0.3,0.45-0.45,1.07-0.45,1.85v0.2c0,0.54,0.09,1.01,0.26,1.39c0.17,0.38,0.41,0.72,0.7,0.99
						c0.3,0.28,0.66,0.53,1.08,0.73c0.44,0.21,0.92,0.39,1.43,0.55c0.54,0.16,1.05,0.31,1.52,0.44c0.5,0.14,0.95,0.29,1.33,0.45
						c0.43,0.17,0.76,0.37,1.02,0.59c0.33,0.29,0.5,0.66,0.5,1.07v0.1c0,0.56-0.28,1.01-0.78,1.25c-0.38,0.18-0.86,0.28-1.42,0.28
						c-0.69,0-1.38-0.08-2.06-0.23c-0.67-0.15-1.31-0.35-1.9-0.6c-0.6-0.25-1.14-0.55-1.61-0.88c-0.04-0.03-0.09-0.07-0.14-0.1
						l0.33,3.12C160.47,26.84,160.66,26.82,160.84,26.82z M159.97,26.99C159.97,26.99,159.97,26.99,159.97,26.99
						C159.97,26.99,159.97,26.99,159.97,26.99z"/>
				</g>
			</g>
		</g>
	</g>
</g>
</svg>
