<?xml version="1.0" encoding="utf-8"?>
<!-- Generator: Adobe Illustrator 25.2.1, SVG Export Plug-In . SVG Version: 6.00 Build 0)  -->
<svg version="1.1" id="Capa_1" xmlns="http://www.w3.org/2000/svg" xmlns:xlink="http://www.w3.org/1999/xlink" x="0px" y="0px"
	 viewBox="0 0 963.98 198.07" style="enable-background:new 0 0 963.98 198.07;" xml:space="preserve">
<style type="text/css">
	.st0{opacity:0.11;}
	.st1{fill:#FFFFFF;}
</style>
<g class="st0">
	<g>
		<path class="st1" d="M383.73-0.57c-3.23,0.11-6.34-0.7-9.53-0.64c-2.91,0.06-5.41,0.61-8.3,0.23c-13.8,6-27.03,13.22-39.43,21.91
			c-9.27,6.49-19.19,12.41-30.73,13.32c-12.81,1.01-25.62-1.18-38.31-2.61C203.85,25.62,150.41,18.47,97.17,9.9
			C67.09,5.05,37.07-0.23,7.13-5.91C1.75-6.93-0.55,1.31,4.86,2.34c53.69,10.19,107.62,19.06,161.75,26.55
			c26.98,3.74,54.01,7.15,81.08,10.22c13.04,1.48,26.18,3.65,39.32,3.92c11.97,0.25,22.97-2.17,33.43-8.06
			c5.79-3.26,11.06-7.29,16.6-10.92c5.79-3.8,11.78-7.29,17.93-10.48c10.87-5.65,22.19-10.29,33.78-14.22
			C387.05-0.64,385.36-0.63,383.73-0.57z"/>
	</g>
	<g>
		<path class="st1" d="M566.29,55.35c-1.08-5.99-3.37-11.65-5.28-17.4c-4.17-12.61-5.28-25.85-4.97-39.06
			c-0.62,0.29-1.34,0.46-2.18,0.46c-0.5,0-0.95-0.07-1.37-0.18c-0.45,0.13-0.92,0.22-1.46,0.22c-0.78,0-1.47-0.15-2.06-0.41
			c-0.38,0.06-0.76,0.12-1.14,0.14c-0.12,0.01-0.23,0-0.34-0.01c-0.25,11.26,0.54,22.59,3.11,33.57
			c2.36,10.09,7.85,19.74,7.92,30.28c0.07,11.12-4.76,21.86-9.41,31.72c-5.08,10.76-10.46,21.38-15.98,31.91
			c-5.62,10.71-11.39,21.34-17.15,31.98c-5.63,10.4-11.04,20.95-17.48,30.88c-2.29,3.53-4.79,6.88-7.44,10.08
			c0.14,0,0.27,0,0.41,0.01c1.9,0.15,3.69-0.27,5.58-0.36c1.68-0.08,3.42,0.3,5.09,0.05c6.12-8.47,11.16-17.66,16.12-26.85
			c5.93-10.99,11.91-21.95,17.78-32.97c5.94-11.15,11.76-22.36,17.28-33.73c4.93-10.16,10.18-20.54,12.51-31.67
			C567.1,67.8,567.41,61.62,566.29,55.35z"/>
	</g>
	<g>
		<path class="st1" d="M202.05-1c-0.4,0.16-0.96,0.19-1.34,0.24c-0.85,0.1-1.71,0.09-2.56-0.11c-0.19-0.05-0.61-0.17-0.99-0.3
			c-0.34,0.2-0.85,0.28-1.21,0.39c-0.54,0.15-1.05,0.21-1.53,0.21c-2.15,29.22-12.2,57.07-22.18,84.43
			c-1.89,5.18,6.37,7.41,8.25,2.27c10.29-28.2,20.37-56.82,22.5-86.94C202.68-0.86,202.37-0.92,202.05-1z"/>
	</g>
	<g>
		<path class="st1" d="M375.33,199.73c2.21-0.24,4.31,0.28,6.48,0.61c0.75,0.12,1.49,0.22,2.24,0.33c-0.58-0.55-1.17-1.1-1.83-1.53
			c-0.75-0.49-1.75-0.65-2.45-1.14c-1.2-0.85-2.26-2.43-3.37-3.44c-1.31-1.2-2.67-2.33-4.06-3.43c-3.23-2.56-6.63-4.88-10.11-7.09
			c-7.12-4.53-14.46-8.58-21.98-12.4c-15.36-7.8-31.1-14.9-45.7-24.11c-14.65-9.24-28.27-20.38-41.75-31.22
			c-12.91-10.38-27.12-19.67-43.06-24.63c-17.07-5.31-34.37-8.19-52.18-9.57c-17.7-1.37-35.52-1.43-53.18-3.36
			c-19.02-2.08-37.27-7.18-54.03-16.51c-4.04-2.25-7.99-4.66-11.71-7.41c-3.31-2.44-8.06-3.31-11.91-4.81
			c-8.4-3.26-16.54-6.03-25.65-4.55c-5.42,0.88-3.12,9.12,2.27,8.25c7.48-1.21,14.84,2.13,21.65,4.77
			c3.54,1.37,7.21,2.24,10.31,4.46c3.25,2.33,6.67,4.42,10.16,6.38c14.44,8.12,29.94,13.47,46.27,16.24
			c34.03,5.78,68.96,2.4,102.7,10.57c16.25,3.94,31.14,10.71,44.79,20.38c6.8,4.82,13.12,10.38,19.7,15.51
			c6.43,5.02,12.93,9.96,19.54,14.74c13.7,9.92,28.31,17.85,43.46,25.31c14.51,7.15,29.22,14.17,42.39,23.65
			c2.25,1.62,4.21,3.48,6.18,5.35C372.12,200.6,373.64,199.92,375.33,199.73z"/>
	</g>
	<g>
		<path class="st1" d="M828.02,72.54c7.76-23.61,10.99-48.6,11-73.4c-0.34,0.07-0.69,0.1-1.08,0.1c-0.28,0-0.54-0.02-0.79-0.06
			c-0.35,0.07-0.71,0.12-1.1,0.12c-0.13,0-0.25-0.01-0.37-0.02c-0.5,0.17-1.05,0.26-1.67,0.26c-0.53,0-1.01-0.07-1.45-0.2
			c-0.34,0.07-0.71,0.11-1.1,0.11c-0.35,0-0.68-0.03-1-0.09c-0.03,21.41-2.55,42.69-8.39,63.32c-2.78,9.82-6.5,19.04-11.05,28.16
			c-4.32,8.68-8.51,18.11-7.39,28.05c0.46,4.1,1.82,7.98,4.04,11.45c1.16,1.81,2.6,3.48,3.59,5.39c1.35,2.61,0.75,4.76-0.02,7.49
			c-2.74,9.68-6.33,19.2-9.43,28.77c-3,9.26-6.08,18.5-9.01,27.78c0.77,0.04,1.55,0.22,2.3,0.55c1.71,0.75,1.35,0.17,3.47-0.14
			c1.09-0.16,2.21-0.09,3.31-0.1c1.24-4.14,2.48-8.25,3.8-12.32c3.54-10.91,6.93-21.89,10.58-32.76c1.46-4.34,3.25-8.6,4.09-13.12
			c0.94-5.09-0.63-9.06-3.48-13.23c-2.58-3.78-4.68-7.3-4.88-12.01c-0.22-5.47,1.53-10.84,3.69-15.79
			C819.86,91.35,824.77,82.43,828.02,72.54z"/>
	</g>
	<g>
		<path class="st1" d="M496.96,199.19c-1.1-0.44-2.35-0.26-3.42,0.32C494.68,199.42,495.81,199.25,496.96,199.19z"/>
		<path class="st1" d="M963.87,143.34c-0.01-0.06-0.03-0.22-0.07-0.51c-0.09-0.53-0.16-1.06-0.2-1.6c-0.06-0.84,0.12-1.56,0.18-2.38
			c-0.03,0-0.06-1.3-0.06-1.45c0.01-0.33,0.05-0.65,0.11-0.96c-44.06-4.91-88.13-9.79-132.19-14.72c-3.84-0.43-7.99-0.77-11.56-2.39
			c-4.1-1.86-4.98-5.72-7.41-9.11c-5.58-7.79-17.03-8.06-25.6-9.5c-21.71-3.64-43.45-7.04-65.24-10.22
			c-10.66-1.55-21.34-3.05-32.02-4.49c-8.67-1.17-17.39-2.26-26.15-2.14c-17.28,0.25-33.87,6.07-42.61,21.91
			c-4.08,7.39-6.25,15.63-8.47,23.72c-2.76,10.09-5.8,20.1-9.1,30.02c-4.49,13.49-9.47,26.82-14.93,39.95
			c0.27-0.04,0.55-0.05,0.84-0.02c-0.46,0.2-0.39,0.19,0.21-0.02c0.59-0.2,1.21-0.31,1.84-0.33c1.01-0.06,1.94,0.11,2.94,0.3
			c0.11,0.02,0.2,0.04,0.27,0.06c0.07-0.01,0.15-0.02,0.25-0.04c0.98-0.12,1.91-0.3,2.9-0.27c0.03,0,0.06,0.01,0.09,0.01
			c0.47-1.14,0.94-2.28,1.4-3.42c7.98-19.85,14.89-40.14,20.66-60.75c4.54-16.2,8.61-34.16,26.6-40.03
			c17.85-5.82,38.29-1.12,56.32,1.4c21.8,3.05,43.57,6.34,65.3,9.86c5.55,0.9,11.09,1.81,16.63,2.74c5,0.84,10.19,1.4,15.08,2.77
			c4.92,1.38,6.01,4.15,8.49,8.2c2.22,3.62,5.41,6.08,9.35,7.63c4.43,1.74,9.23,2.19,13.93,2.72c6.57,0.74,13.13,1.46,19.7,2.19
			c12.2,1.36,24.39,2.72,36.59,4.08c25.33,2.82,50.66,5.64,75.99,8.46c0.02,0,0.04,0,0.06,0
			C963.97,144.45,963.93,143.9,963.87,143.34z"/>
	</g>
	<g>
		<path class="st1" d="M700.92-0.83c-0.29,0-0.56-0.03-0.83-0.07c-0.44,0.13-0.93,0.2-1.47,0.2c-0.26,0-0.51-0.02-0.75-0.05
			c-0.47,0.14-0.98,0.23-1.55,0.23c-0.56,0-1.06-0.08-1.52-0.22c-0.35,0.07-0.73,0.13-1.13,0.13c-0.27,0-0.52-0.02-0.76-0.06
			c4.38,31.09-8.4,61.74-26.22,86.66c-3.21,4.49,4.21,8.76,7.39,4.32c18.89-26.42,31.35-58.43,27.35-91.17
			C701.27-0.84,701.1-0.83,700.92-0.83z"/>
	</g>
	<g>
		<path class="st1" d="M830.08,29.01c-4.67,5.43-14.42,5.83-21,6.19c-8.34,0.45-16.62-0.09-24.89-1.15
			c-27.12-3.46-54.48-4.91-81.81-4.46c-5.5,0.09-5.52,8.65,0,8.55c28.54-0.47,56.86,1.45,85.18,4.9c8.62,1.05,17.47,1.25,26.1,0.36
			c7.64-0.79,17.16-2.15,22.47-8.34C839.7,30.9,833.67,24.82,830.08,29.01L830.08,29.01z"/>
	</g>
	<g>
		<path class="st1" d="M605.85,199.93c-0.47-0.03-0.27-0.09,0.6-0.17c0.71-0.12,1.43-0.22,2.14-0.31c0.94-0.08,1.88-0.05,2.83-0.04
			c2.06,0.02,3.9-0.21,5.9-0.43c-4.98-4.06-10.25-7.77-15.74-11.1c-4.72-2.86-9.02,4.53-4.32,7.39c2.42,1.47,4.78,3.01,7.1,4.62
			C604.85,199.86,605.35,199.86,605.85,199.93z"/>
	</g>
	<g>
		<path class="st1" d="M262.96,129.48c-30.7,19.85-63.84,36.62-98.81,47.55c-15.73,4.92-32.46,7.9-47.56,14.62
			c-4.86,2.16-9.33,5.04-12.96,8.6c3.04-0.06,6.05-0.81,9.06-0.53c1.94,0.17,3.85,0.33,5.76,0.45c1.35-0.66,2.72-1.27,4.1-1.82
			c14.96-5.96,31.13-8.95,46.45-13.89c16.28-5.25,32.19-11.84,47.63-19.18c17.5-8.32,34.37-17.9,50.64-28.42
			C271.88,133.89,267.6,126.48,262.96,129.48z"/>
	</g>
</g>
</svg>
